<?xml version="1.0" encoding="UTF-8"?>
<svg width="31px" height="30px" viewBox="0 0 31 30" version="1.1" xmlns="http://www.w3.org/2000/svg" xmlns:xlink="http://www.w3.org/1999/xlink">
    <!-- Generator: Sketch 46.2 (44496) - http://www.bohemiancoding.com/sketch -->
    <title>Page 1</title>
    <desc>Created with Sketch.</desc>
    <defs>
        <path d="M0.727,14.812 C0.727,22.916 7.359,29.548 15.464,29.548 C23.539,29.548 30.152,22.966 30.2,14.901 L30.2,14.723 C30.152,6.657 23.539,0.074 15.464,0.074 C7.359,0.074 0.727,6.706 0.727,14.812 Z" id="path-1"></path>
        <path d="M5.662,0.972 C2.967,0.972 2.362,2.963 2.362,4.257 L2.362,5.668 L0.797,5.668 L0.797,7.565 L0.797,8.807 L2.379,8.807 L2.379,16.651 L5.518,16.651 L5.518,8.807 L7.841,8.807 L7.943,7.573 L8.13,5.668 L5.637,5.668 L5.637,4.409 C5.637,3.806 6.038,3.661 6.326,3.661 L8.087,3.661 L8.087,0.972 L5.662,0.972 Z" id="path-3"></path>
    </defs>
    <g id="Welcome" stroke="none" stroke-width="1" fill="none" fill-rule="evenodd">
        <g id="Desktop-Copy-6" transform="translate(-1496.000000, -30.000000)">
            <g id="Page-1" transform="translate(1496.000000, 30.000000)">
                <g id="Group-3">
                    <mask id="mask-2" fill="white">
                        <use xlink:href="#path-1"></use>
                    </mask>
                    <g id="Clip-2"></g>
                    <polygon id="Fill-1" fill="#F9F9F9" mask="url(#mask-2)" points="-2.375 32.651 33.304 32.651 33.304 -3.028 -2.375 -3.028"></polygon>
                </g>
                <g id="Group-6" transform="translate(11.000000, 6.000000)">
                    <mask id="mask-4" fill="white">
                        <use xlink:href="#path-3"></use>
                    </mask>
                    <g id="Clip-5"></g>
                    <polygon id="Fill-4" fill="#91BFAC" mask="url(#mask-4)" points="-2.306 19.753 11.232 19.753 11.232 -2.13 -2.306 -2.13"></polygon>
                </g>
            </g>
        </g>
    </g>
</svg>