<?xml version="1.0" encoding="UTF-8"?>
<svg width="31px" height="30px" viewBox="0 0 31 30" version="1.1" xmlns="http://www.w3.org/2000/svg" xmlns:xlink="http://www.w3.org/1999/xlink">
    <!-- Generator: Sketch 46.2 (44496) - http://www.bohemiancoding.com/sketch -->
    <title>Page 1</title>
    <desc>Created with Sketch.</desc>
    <defs>
        <path d="M0.662,15.121 C0.662,23.227 7.293,29.859 15.399,29.859 C23.504,29.859 30.136,23.227 30.136,15.121 C30.136,7.016 23.504,0.385 15.399,0.385 C7.293,0.385 0.662,7.016 0.662,15.121 Z" id="path-1"></path>
        <path d="M4.513,0.083 C2.241,0.448 0.61,2.236 0.261,4.319 C0.099,5.204 0.167,6.148 0.516,7.067 C1.384,9.27 3.603,10.623 5.985,10.359 C7.15,10.231 8.189,9.815 8.988,8.955 C10.187,7.68 10.502,6.148 10.306,4.455 C10.272,4.175 10.162,4.124 9.898,4.124 C8.766,4.141 7.635,4.141 6.505,4.141 C6.182,4.141 5.849,4.124 5.535,4.141 C5.467,4.141 5.365,4.218 5.365,4.26 C5.355,4.915 5.355,5.57 5.355,6.25 L8.12,6.25 C8.095,6.387 8.07,6.488 8.027,6.582 C7.609,7.841 6.308,8.462 4.905,8.233 C3.169,7.944 2.098,6.343 2.412,4.609 C2.448,4.362 2.531,4.124 2.617,3.903 C3.195,2.644 4.615,1.879 6.019,2.193 C6.522,2.303 6.956,2.534 7.321,2.865 C7.831,2.355 8.316,1.87 8.843,1.343 C8.809,1.316 8.75,1.274 8.716,1.231 C7.741,0.412 6.651,0.002 5.454,0.002 C5.148,0.002 4.834,0.029 4.513,0.083 Z M13.378,3.979 L13.378,4.269 L11.548,4.269 L11.548,4.6 C11.565,4.924 11.574,5.255 11.599,5.578 C11.915,5.596 12.23,5.613 12.56,5.613 C12.826,5.621 13.096,5.613 13.385,5.613 L13.385,7.399 C13.837,7.39 14.253,7.399 14.705,7.399 L14.705,5.613 L16.49,5.613 L16.49,4.6 L16.49,4.286 L15.045,4.286 L14.705,4.286 L14.705,4.218 L14.705,3.979 C14.705,3.545 14.714,3.112 14.705,2.67 C14.705,2.601 14.62,2.473 14.585,2.473 C14.194,2.456 13.795,2.456 13.378,2.456 L13.378,3.979 Z" id="path-3"></path>
    </defs>
    <g id="Welcome" stroke="none" stroke-width="1" fill="none" fill-rule="evenodd">
        <g id="Desktop-Copy-6" transform="translate(-1662.000000, -30.000000)">
            <g id="Page-1" transform="translate(1662.000000, 30.000000)">
                <g id="Group-3">
                    <mask id="mask-2" fill="white">
                        <use xlink:href="#path-1"></use>
                    </mask>
                    <g id="Clip-2"></g>
                    <polygon id="Fill-1" fill="#F9F9F9" mask="url(#mask-2)" points="-2.44 32.961 33.239 32.961 33.239 -2.718 -2.44 -2.718"></polygon>
                </g>
                <g id="Group-6" transform="translate(7.000000, 10.000000)">
                    <mask id="mask-4" fill="white">
                        <use xlink:href="#path-3"></use>
                    </mask>
                    <g id="Clip-5"></g>
                    <polygon id="Fill-4" fill="#91BFAC" mask="url(#mask-4)" points="-2.925 13.494 19.594 13.494 19.594 -3.1 -2.925 -3.1"></polygon>
                </g>
            </g>
        </g>
    </g>
</svg>