<?xml version="1.0" encoding="UTF-8"?>
<svg width="96px" height="96px" viewBox="0 0 96 96" version="1.1" xmlns="http://www.w3.org/2000/svg" xmlns:xlink="http://www.w3.org/1999/xlink">
    <!-- Generator: Sketch 46.2 (44496) - http://www.bohemiancoding.com/sketch -->
    <title>Group 5</title>
    <desc>Created with Sketch.</desc>
    <defs>
        <path d="M0.6,48.001 C0.6,74.125 21.976,95.5 48.1,95.5 C74.226,95.5 95.6,74.125 95.6,48.001 C95.6,21.875 74.226,0.499 48.1,0.499 C21.976,0.499 0.6,21.875 0.6,48.001 Z" id="path-1"></path>
        <path d="M12.009,0.175 L38.193,0.175 C44.662,0.175 49.928,5.436 49.928,11.906 L49.928,38.092 C49.928,44.535 44.662,49.828 38.193,49.828 L12.009,49.828 C5.565,49.828 0.274,44.535 0.274,38.092 L0.274,11.906 C0.274,5.436 5.565,0.175 12.009,0.175 Z M3.205,38.092 C3.205,42.945 7.155,46.892 12.009,46.892 L38.193,46.892 C43.047,46.892 46.994,42.945 46.994,38.092 L46.994,11.906 C46.994,7.054 43.047,3.107 38.193,3.107 L12.009,3.107 C7.155,3.107 3.205,7.054 3.205,11.906 L3.205,38.092 Z M38.22,9.384 C38.22,7.96 39.37,6.808 40.797,6.808 C42.223,6.808 43.375,7.96 43.375,9.384 C43.375,10.812 42.223,11.963 40.797,11.963 C39.37,11.963 38.22,10.812 38.22,9.384 Z M9.075,24.986 C9.075,16.157 16.258,8.974 25.087,8.974 C33.944,8.974 41.099,16.157 41.099,24.986 C41.099,33.843 33.944,41.001 25.087,41.001 C16.258,41.001 9.075,33.843 9.075,24.986 Z M12.419,24.986 C12.419,32.005 18.096,37.681 25.087,37.681 C32.106,37.681 37.782,32.005 37.782,24.986 C37.782,17.995 32.106,12.292 25.087,12.292 C18.096,12.292 12.419,17.995 12.419,24.986 Z" id="path-3"></path>
    </defs>
    <g id="Welcome" stroke="none" stroke-width="1" fill="none" fill-rule="evenodd">
        <g id="Desktop-Copy-6" transform="translate(-1406.000000, -4755.000000)">
            <g id="Group-5" transform="translate(1406.000000, 4755.000000)">
                <g id="Group-30">
                    <mask id="mask-2" fill="white">
                        <use xlink:href="#path-1"></use>
                    </mask>
                    <g id="Clip-29"></g>
                    <polygon id="Fill-28" fill="#F9F9F9" mask="url(#mask-2)" points="-4.4 100.5 100.6 100.5 100.6 -4.5 -4.4 -4.5"></polygon>
                </g>
                <g id="Group-33" transform="translate(23.000000, 23.000000)">
                    <mask id="mask-4" fill="white">
                        <use xlink:href="#path-3"></use>
                    </mask>
                    <g id="Clip-32"></g>
                    <polygon id="Fill-31" fill="#91BFAC" mask="url(#mask-4)" points="-4.727 54.827 54.928 54.827 54.928 -4.826 -4.727 -4.826"></polygon>
                </g>
            </g>
        </g>
    </g>
</svg>