<?xml version="1.0" encoding="UTF-8"?>
<svg width="114px" height="71px" viewBox="0 0 114 71" version="1.1" xmlns="http://www.w3.org/2000/svg" xmlns:xlink="http://www.w3.org/1999/xlink">
    <!-- Generator: Sketch 46.2 (44496) - http://www.bohemiancoding.com/sketch -->
    <title>Group 10</title>
    <desc>Created with Sketch.</desc>
    <defs></defs>
    <g id="Welcome" stroke="none" stroke-width="1" fill="none" fill-rule="evenodd">
        <g id="Desktop-Copy-6" transform="translate(-1351.000000, -4982.000000)">
            <g id="Group-10" transform="translate(1351.000000, 4982.000000)">
                <path d="M113.1295,66.7803 C113.1295,68.8443 111.4535,70.5183 109.3895,70.5183 L4.6785,70.5183 C2.6125,70.5183 0.9395,68.8443 0.9395,66.7803 L0.9395,4.1403 C0.9395,2.0743 2.6125,0.4003 4.6785,0.4003 L109.3895,0.4003 C111.4535,0.4003 113.1295,2.0743 113.1295,4.1403 L113.1295,66.7803 Z" id="Fill-42" fill="#F9F5F1"></path>
                <polygon id="Fill-44" fill="#7AAE98" points="52.567 45.9922 47.088 45.9922 50.513 24.9412 55.994 24.9412"></polygon>
                <path d="M42.4772,24.9414 L37.2512,39.4204 L36.6332,36.3024 L34.7902,26.8374 C34.7902,26.8374 34.5672,24.9414 32.1912,24.9414 L23.5522,24.9414 L23.4532,25.2974 C23.4532,25.2974 26.0942,25.8464 29.1842,27.7044 L33.9452,45.9924 L39.6562,45.9924 L48.3762,24.9414 L42.4772,24.9414 Z" id="Fill-46" fill="#7AAE98"></path>
                <path d="M79.5543,38.5459 L82.4333,30.6669 L84.0543,38.5459 L79.5543,38.5459 Z M85.5853,45.9919 L90.6173,45.9919 L86.2303,24.9419 L81.8243,24.9419 C79.7883,24.9419 79.2923,26.5099 79.2923,26.5099 L71.1203,45.9919 L76.8323,45.9919 L77.9733,42.8649 L84.9423,42.8649 L85.5853,45.9919 Z" id="Fill-48" fill="#7AAE98"></path>
                <path d="M71.5485,30.0029 L72.3285,25.4819 C72.3285,25.4819 69.9165,24.5659 67.4015,24.5659 C64.6815,24.5659 58.2225,25.7539 58.2225,31.5339 C58.2225,36.9729 65.8045,37.0399 65.8045,39.8959 C65.8045,42.7509 59.0035,42.2409 56.7605,40.4399 L55.9445,45.1649 C55.9445,45.1649 58.3925,46.3549 62.1305,46.3549 C65.8705,46.3549 71.5135,44.4169 71.5135,39.1489 C71.5135,33.6759 63.8645,33.1639 63.8645,30.7849 C63.8645,28.4049 69.2035,28.7109 71.5485,30.0029" id="Fill-50" fill="#7AAE98"></path>
                <path d="M36.6334,36.3027 L34.7904,26.8367 C34.7904,26.8367 34.5674,24.9417 32.1914,24.9417 L23.5524,24.9417 L23.4524,25.2977 C23.4524,25.2977 27.6034,26.1577 31.5844,29.3807 C35.3914,32.4627 36.6334,36.3027 36.6334,36.3027" id="Fill-52" fill="#467B85"></path>
            </g>
        </g>
    </g>
</svg>