<?xml version="1.0" encoding="UTF-8"?>
<svg width="112px" height="70px" viewBox="0 0 112 70" version="1.1" xmlns="http://www.w3.org/2000/svg" xmlns:xlink="http://www.w3.org/1999/xlink">
    <!-- Generator: Sketch 46.2 (44496) - http://www.bohemiancoding.com/sketch -->
    <title>Group 16</title>
    <desc>Created with Sketch.</desc>
    <defs></defs>
    <g id="Welcome" stroke="none" stroke-width="1" fill="none" fill-rule="evenodd">
        <g id="Desktop-Copy-6" transform="translate(-1425.000000, -5072.000000)">
            <g id="Group-16" transform="translate(1425.000000, 5072.000000)">
                <path d="M6.0739,0 L105.6499,0 C108.9329,0 111.5949,2.661 111.5949,5.944 L111.5949,64.056 C111.5949,67.339 108.9329,70 105.6499,70 L6.0739,70 C2.7909,70 0.1299,67.339 0.1299,64.056 L0.1299,5.944 C0.1299,2.661 2.7909,0 6.0739,0" id="Fill-211" fill="#F9F5F1"></path>
                <path d="M87.0621,35.3633 C87.0621,20.5893 74.7301,10.3763 61.2181,10.3813 L49.5891,10.3813 C35.9161,10.3763 24.6621,20.5923 24.6621,35.3633 C24.6621,48.8783 35.9161,59.9813 49.5891,59.9163 L61.2181,59.9163 C74.7301,59.9813 87.0621,48.8753 87.0621,35.3633" id="Fill-212" fill="#7AAE98"></path>
                <path d="M49.6617,12.4736 C37.1677,12.4776 27.0427,22.6256 27.0397,35.1506 C27.0427,47.6726 37.1667,57.8196 49.6617,57.8236 C62.1587,57.8196 72.2857,47.6726 72.2877,35.1506 C72.2857,22.6256 62.1587,12.4776 49.6617,12.4736" id="Fill-213" fill="#467B85"></path>
                <path d="M54.8317,48.5059 L54.8317,21.6759 C60.2127,23.7449 64.0327,28.9669 64.0427,35.0899 C64.0327,41.2149 60.2127,46.4329 54.8317,48.5059 M35.3617,35.0889 C35.3737,28.9689 39.1887,23.7499 44.5677,21.6759 L44.5677,48.4989 C39.1887,46.4259 35.3737,41.2099 35.3617,35.0889" id="Fill-214" fill="#F9F5F1"></path>
            </g>
        </g>
    </g>
</svg>