<?xml version="1.0" encoding="UTF-8"?>
<svg width="115px" height="72px" viewBox="0 0 115 72" version="1.1" xmlns="http://www.w3.org/2000/svg" xmlns:xlink="http://www.w3.org/1999/xlink">
    <!-- Generator: Sketch 46.2 (44496) - http://www.bohemiancoding.com/sketch -->
    <title>Group 13</title>
    <desc>Created with Sketch.</desc>
    <defs></defs>
    <g id="Welcome" stroke="none" stroke-width="1" fill="none" fill-rule="evenodd">
        <g id="Desktop-Copy-6" transform="translate(-1639.000000, -4982.000000)">
            <g id="Group-13" transform="translate(1639.000000, 4982.000000)">
                <path d="M114.1294,67.3887 C114.1294,69.4737 112.4394,71.1607 110.3554,71.1607 L4.6834,71.1607 C2.5994,71.1607 0.9104,69.4737 0.9104,67.3887 L0.9104,4.1747 C0.9104,2.0897 2.5994,0.4007 4.6834,0.4007 L110.3554,0.4007 C112.4394,0.4007 114.1294,2.0897 114.1294,4.1747 L114.1294,67.3887 Z" id="Fill-54" fill="#F9F5F1"></path>
                <polygon id="Fill-56" fill="#7AAE98" points="71.106 56.0928 72.155 56.0668 73.189 55.9908 74.203 55.8618 75.211 55.6828 76.192 55.4568 77.158 55.1828 78.103 54.8608 79.027 54.4968 79.931 54.0858 80.809 53.6418 81.659 53.1478 82.488 52.6198 83.283 52.0518 84.049 51.4478 84.79 50.8118 85.495 50.1338 86.173 49.4268 86.81 48.6858 87.415 47.9198 87.983 47.1248 88.509 46.2958 89.003 45.4458 89.448 44.5688 89.858 43.6648 90.221 42.7388 90.544 41.7928 90.819 40.8278 91.044 39.8478 91.223 38.8418 91.353 37.8268 91.429 36.7918 91.456 35.7438 91.429 34.7018 91.353 33.6748 91.223 32.6608 91.044 31.6658 90.819 30.6878 90.544 29.7278 90.221 28.7828 89.858 27.8638 89.448 26.9668 89.003 26.0888 88.509 25.2468 87.983 24.4178 87.415 23.6228 86.81 22.8628 86.173 22.1228 85.495 21.4168 84.79 20.7448 84.049 20.1088 83.283 19.5048 82.488 18.9368 81.659 18.4088 80.809 17.9228 79.931 17.4778 79.027 17.0658 78.103 16.7028 77.158 16.3808 76.192 16.1068 75.211 15.8808 74.203 15.7028 73.189 15.5718 72.155 15.4958 71.106 15.4688 70.065 15.4958 69.031 15.5718 68.017 15.7028 67.015 15.8808 66.035 16.1068 65.069 16.3808 64.131 16.7028 63.206 17.0658 62.308 17.4778 61.439 17.9228 60.589 18.4088 59.766 18.9368 58.972 19.5048 58.204 20.1088 57.47 20.7448 56.765 21.4168 56.093 22.1228 55.458 22.8628 54.854 23.6228 54.292 24.4178 53.763 25.2468 53.278 26.0888 52.825 26.9668 52.421 27.8638 52.058 28.7828 51.743 29.7278 51.469 30.6878 51.242 31.6658 51.064 32.6608 50.935 33.6748 50.86 34.7018 50.832 35.7438 50.86 36.7918 50.935 37.8268 51.064 38.8418 51.242 39.8478 51.469 40.8278 51.743 41.7928 52.058 42.7388 52.421 43.6648 52.825 44.5688 53.278 45.4458 53.763 46.2958 54.292 47.1248 54.854 47.9198 55.458 48.6858 56.093 49.4268 56.765 50.1338 57.47 50.8118 58.204 51.4478 58.972 52.0518 59.766 52.6198 60.589 53.1478 61.439 53.6418 62.308 54.0858 63.206 54.4968 64.131 54.8608 65.069 55.1828 66.035 55.4568 67.015 55.6828 68.017 55.8618 69.031 55.9908 70.065 56.0668"></polygon>
                <polygon id="Fill-58" fill="#467B85" points="43.9331 56.0928 44.9731 56.0668 46.0071 55.9908 47.0231 55.8618 48.0231 55.6828 49.0031 55.4568 49.9671 55.1828 50.9071 54.8608 51.8321 54.4968 52.7301 54.0858 53.6011 53.6418 54.4491 53.1478 55.2721 52.6198 56.0671 52.0518 56.8341 51.4478 57.5681 50.8118 58.2731 50.1338 58.9451 49.4268 59.5821 48.6858 60.1841 47.9198 60.7461 47.1248 61.2731 46.2958 61.7601 45.4458 62.2131 44.5688 62.6171 43.6648 62.9801 42.7388 63.2951 41.7928 63.5691 40.8278 63.7961 39.8478 63.9721 38.8418 64.1051 37.8268 64.1791 36.7918 64.2051 35.7438 64.1791 34.7018 64.1051 33.6748 63.9721 32.6608 63.7961 31.6658 63.5691 30.6878 63.2951 29.7278 62.9801 28.7828 62.6171 27.8638 62.2131 26.9668 61.7601 26.0888 61.2731 25.2468 60.7461 24.4178 60.1841 23.6228 59.5821 22.8628 58.9451 22.1228 58.2731 21.4168 57.5681 20.7448 56.8341 20.1088 56.0671 19.5048 55.2721 18.9368 54.4491 18.4088 53.6011 17.9228 52.7301 17.4778 51.8321 17.0658 50.9071 16.7028 49.9671 16.3808 49.0031 16.1068 48.0231 15.8808 47.0231 15.7028 46.0071 15.5718 44.9731 15.4958 43.9331 15.4688 42.8831 15.4958 41.8491 15.5718 40.8351 15.7028 39.8271 15.8808 38.8481 16.1068 37.8821 16.3808 36.9351 16.7028 36.0111 17.0658 35.1071 17.4778 34.2311 17.9228 33.3811 18.4088 32.5511 18.9368 31.7551 19.5048 30.9891 20.1088 30.2481 20.7448 29.5431 21.4168 28.8651 22.1228 28.2281 22.8628 27.6251 23.6228 27.0551 24.4178 26.5291 25.2468 26.0351 26.0888 25.5901 26.9668 25.1781 27.8638 24.8171 28.7828 24.4941 29.7278 24.2191 30.6878 23.9941 31.6658 23.8151 32.6608 23.6851 33.6748 23.6091 34.7018 23.5821 35.7438 23.6091 36.7918 23.6851 37.8268 23.8151 38.8418 23.9941 39.8478 24.2191 40.8278 24.4941 41.7928 24.8171 42.7388 25.1781 43.6648 25.5901 44.5688 26.0351 45.4458 26.5291 46.2958 27.0551 47.1248 27.6251 47.9198 28.2281 48.6858 28.8651 49.4268 29.5431 50.1338 30.2481 50.8118 30.9891 51.4478 31.7551 52.0518 32.5511 52.6198 33.3811 53.1478 34.2311 53.6418 35.1071 54.0858 36.0111 54.4968 36.9351 54.8608 37.8821 55.1828 38.8481 55.4568 39.8271 55.6828 40.8351 55.8618 41.8491 55.9908 42.8831 56.0668"></polygon>
                <polygon id="Fill-60" fill="#7AAE98" points="55.1421 23.2598 65.9351 23.2598 65.9351 22.1558 56.0731 22.1558"></polygon>
                <polygon id="Fill-62" fill="#7AAE98" points="53.5249 25.7129 65.9349 25.7129 65.9349 24.6089 54.1749 24.6089"></polygon>
                <polygon id="Fill-64" fill="#7AAE98" points="52.3179 28.1592 65.9349 28.1592 65.9349 27.0552 52.7979 27.0552"></polygon>
                <polygon id="Fill-66" fill="#7AAE98" points="51.4888 30.6113 65.9348 30.6113 65.9348 29.5083 51.8328 29.5083"></polygon>
                <polygon id="Fill-68" fill="#7AAE98" points="51.9702 42.4658 65.9682 42.4658 65.9682 41.3618 51.6262 41.3618"></polygon>
                <polygon id="Fill-70" fill="#7AAE98" points="53.0034 44.918 65.9684 44.918 65.9684 43.815 52.4894 43.815"></polygon>
                <polygon id="Fill-72" fill="#7AAE98" points="54.4556 47.3643 65.9686 47.3643 65.9686 46.2613 53.7636 46.2613"></polygon>
                <polygon id="Fill-74" fill="#7AAE98" points="56.4565 49.8174 65.9685 49.8174 65.9685 48.7074 55.4905 48.7074"></polygon>
                <polygon id="Fill-76" fill="#7AAE98" points="51.0044 33.0576 65.9354 33.0576 65.9354 31.9546 51.2154 31.9546"></polygon>
                <polygon id="Fill-78" fill="#7AAE98" points="60.103 40.0195 65.795 40.0195 65.795 38.9155 60.307 38.9155"></polygon>
                <polygon id="Fill-80" fill="#7AAE98" points="60.5542 37.5732 65.7952 37.5732 65.7952 36.4632 60.7602 36.4632"></polygon>
                <polygon id="Fill-82" fill="#7AAE98" points="50.6265 36.4629 52.1055 36.4629 52.1055 37.5729 50.6955 37.5729"></polygon>
                <polygon id="Fill-84" fill="#FFFFFF" points="47.8638 35.126 47.7688 35.12 47.6728 35.106 47.5838 35.094 47.4958 35.079 47.4128 35.066 47.3248 35.052 47.2348 35.039 47.1378 35.024 47.0428 35.012 46.9328 35.004 46.8098 34.997 46.6808 34.989 46.5368 34.989 46.3778 34.997 46.1998 35.012 46.0028 35.024 45.8648 35.045 45.7348 35.066 45.6178 35.106 45.5138 35.147 45.4188 35.195 45.3308 35.25 45.2618 35.319 45.2008 35.381 45.1578 35.456 45.1228 35.531 45.1098 35.613 45.1098 35.696 45.1318 35.785 45.1578 35.874 45.2128 35.963 45.2818 36.053 45.4188 36.182 45.5848 36.285 45.7748 36.374 45.9808 36.449 46.1998 36.519 46.4268 36.594 46.6528 36.677 46.8718 36.765 47.0778 36.881 47.2678 37.024 47.4408 37.197 47.5838 37.409 47.6928 37.669 47.7618 37.978 47.7898 38.349 47.7618 38.779 47.7148 39.102 47.6318 39.382 47.5218 39.643 47.3848 39.868 47.2278 40.068 47.0498 40.238 46.8568 40.39 46.6458 40.521 46.4268 40.622 46.1998 40.711 45.9678 40.78 45.7268 40.834 45.4948 40.877 45.2668 40.897 45.0418 40.911 44.8298 40.916 44.5358 40.916 44.2598 40.911 44.0208 40.911 43.7958 40.904 43.5888 40.897 43.4038 40.883 43.2398 40.869 43.0828 40.849 42.9378 40.834 42.8078 40.808 42.6788 40.786 42.5608 40.753 42.4448 40.726 42.3358 40.684 42.2258 40.644 42.1098 40.602 42.4188 39.088 42.4798 39.102 42.5558 39.122 42.6508 39.148 42.7668 39.178 42.8908 39.204 43.0268 39.231 43.1778 39.266 43.3428 39.293 43.5128 39.32 43.6908 39.348 43.8788 39.368 44.0688 39.389 44.2678 39.396 44.4678 39.402 44.6668 39.402 44.8638 39.396 45.0628 39.355 45.2208 39.299 45.3448 39.225 45.4398 39.129 45.5078 39.032 45.5618 38.922 45.5968 38.814 45.6258 38.711 45.6368 38.512 45.5758 38.34 45.4598 38.203 45.2888 38.087 45.0838 37.984 44.8428 37.882 44.5758 37.785 44.3078 37.676 44.0348 37.553 43.7738 37.409 43.5348 37.23 43.3158 37.019 43.1428 36.758 43.0208 36.449 42.9598 36.08 42.9668 35.642 43.0008 35.374 43.0478 35.12 43.1168 34.888 43.1998 34.668 43.3078 34.463 43.4318 34.284 43.5768 34.112 43.7478 33.963 43.9468 33.833 44.1658 33.723 44.4128 33.62 44.6868 33.545 44.9938 33.482 45.3308 33.435 45.6988 33.407 46.1048 33.4 46.3568 33.4 46.5898 33.407 46.8028 33.415 46.9948 33.422 47.1658 33.435 47.3248 33.448 47.4608 33.462 47.5838 33.477 47.6998 33.489 47.7958 33.51 47.8868 33.524 47.9678 33.537 48.0348 33.551 48.0978 33.559 48.1608 33.572 48.2138 33.579"></polygon>
                <polyline id="Stroke-86" stroke="#FFFFFF" stroke-width="0.216" points="47.8638 35.126 47.8638 35.126 47.7688 35.12 47.6728 35.106 47.5838 35.094 47.4958 35.079 47.4128 35.066 47.3248 35.052 47.2348 35.039 47.1378 35.024 47.0428 35.012 46.9328 35.004 46.8098 34.997 46.6808 34.989 46.5368 34.989 46.3778 34.997 46.1998 35.012 46.0028 35.024 45.8648 35.045 45.7348 35.066 45.6178 35.106 45.5138 35.147 45.4188 35.195 45.3308 35.25 45.2618 35.319 45.2008 35.381 45.1578 35.456 45.1228 35.531 45.1098 35.613 45.1098 35.696 45.1318 35.785 45.1578 35.874 45.2128 35.963 45.2818 36.053 45.4188 36.182 45.5848 36.285 45.7748 36.374 45.9808 36.449 46.1998 36.519 46.4268 36.594 46.6528 36.677 46.8718 36.765 47.0778 36.881 47.2678 37.024 47.4408 37.197 47.5838 37.409 47.6928 37.669 47.7618 37.978 47.7898 38.349 47.7618 38.779 47.7148 39.102 47.6318 39.382 47.5218 39.643 47.3848 39.868 47.2278 40.068 47.0498 40.238 46.8568 40.39 46.6458 40.521 46.4268 40.622 46.1998 40.711 45.9678 40.78 45.7268 40.834 45.4948 40.877 45.2668 40.897 45.0418 40.911 44.8298 40.916 44.5358 40.916 44.2598 40.911 44.0208 40.911 43.7958 40.904 43.5888 40.897 43.4038 40.883 43.2398 40.869 43.0828 40.849 42.9378 40.834 42.8078 40.808 42.6788 40.786 42.5608 40.753 42.4448 40.726 42.3358 40.684 42.2258 40.644 42.1098 40.602 42.4188 39.088 42.4798 39.102 42.5558 39.122 42.6508 39.148 42.7668 39.178 42.8908 39.204 43.0268 39.231 43.1778 39.266 43.3428 39.293 43.5128 39.32 43.6908 39.348 43.8788 39.368 44.0688 39.389 44.2678 39.396 44.4678 39.402 44.6668 39.402 44.8638 39.396 45.0628 39.355 45.2208 39.299 45.3448 39.225 45.4398 39.129 45.5078 39.032 45.5618 38.922 45.5968 38.814 45.6258 38.711 45.6368 38.512 45.5758 38.34 45.4598 38.203 45.2888 38.087 45.0838 37.984 44.8428 37.882 44.5758 37.785 44.3078 37.676 44.0348 37.553 43.7738 37.409 43.5348 37.23 43.3158 37.019 43.1428 36.758 43.0208 36.449 42.9598 36.08 42.9668 35.642 43.0008 35.374 43.0478 35.12 43.1168 34.888 43.1998 34.668 43.3078 34.463 43.4318 34.284 43.5768 34.112 43.7478 33.963 43.9468 33.833 44.1658 33.723 44.4128 33.62 44.6868 33.545 44.9938 33.482 45.3308 33.435 45.6988 33.407 46.1048 33.4 46.3568 33.4 46.5898 33.407 46.8028 33.415 46.9948 33.422 47.1658 33.435 47.3248 33.448 47.4608 33.462 47.5838 33.477 47.6998 33.489 47.7958 33.51 47.8868 33.524 47.9678 33.537 48.0348 33.551 48.0978 33.559 48.1608 33.572 48.2138 33.579 47.8638 35.126"></polyline>
                <polygon id="Fill-88" fill="#FFFFFF" points="49.4897 31.8867 51.3857 31.8867 51.1057 33.5447 52.2507 33.5447 52.0037 35.0937 50.7977 35.0587 50.1397 38.8817 50.1337 39.0187 50.1667 39.1357 50.2347 39.2247 50.3247 39.2987 50.4487 39.3477 50.5867 39.3887 50.7357 39.4157 50.8997 39.4307 51.0517 39.4237 51.1887 39.4097 51.3107 39.3887 51.4217 39.3617 51.5107 39.3337 51.5717 39.3137 51.6117 39.2987 51.6267 39.2927 51.3857 40.5677 51.3397 40.6017 51.2917 40.6287 51.2417 40.6567 51.1947 40.6837 51.1467 40.7037 51.0927 40.7257 51.0307 40.7447 50.9687 40.7657 50.8997 40.7857 50.8317 40.8007 50.7507 40.8147 50.6677 40.8277 50.5777 40.8427 50.4747 40.8557 50.3657 40.8687 50.2497 40.8827 49.7287 40.8827 49.4547 40.8617 49.2147 40.8337 48.9957 40.7937 48.8107 40.7447 48.6517 40.6837 48.5227 40.6157 48.4067 40.5327 48.3167 40.4447 48.2487 40.3487 48.2007 40.2317 48.1657 40.1147 48.1457 39.9857 48.1387 39.8407 48.1387 39.6907 48.1607 39.5327 48.1797 39.3617"></polygon>
                <polyline id="Stroke-90" stroke="#FFFFFF" stroke-width="0.216" points="49.4897 31.8867 51.3857 31.8867 51.1057 33.5447 52.2507 33.5447 52.0037 35.0937 50.7977 35.0587 50.1397 38.8817 50.1337 39.0187 50.1667 39.1357 50.2347 39.2247 50.3247 39.2987 50.4487 39.3477 50.5867 39.3887 50.7357 39.4157 50.8997 39.4307 51.0517 39.4237 51.1887 39.4097 51.3107 39.3887 51.4217 39.3617 51.5107 39.3337 51.5717 39.3137 51.6117 39.2987 51.6267 39.2927 51.3857 40.5677 51.3397 40.6017 51.2917 40.6287 51.2417 40.6567 51.1947 40.6837 51.1467 40.7037 51.0927 40.7257 51.0307 40.7447 50.9687 40.7657 50.8997 40.7857 50.8317 40.8007 50.7507 40.8147 50.6677 40.8277 50.5777 40.8427 50.4747 40.8557 50.3657 40.8687 50.2497 40.8827 49.7287 40.8827 49.4547 40.8617 49.2147 40.8337 48.9957 40.7937 48.8107 40.7447 48.6517 40.6837 48.5227 40.6157 48.4067 40.5327 48.3167 40.4447 48.2487 40.3487 48.2007 40.2317 48.1657 40.1147 48.1457 39.9857 48.1387 39.8407 48.1387 39.6907 48.1607 39.5327 48.1797 39.3617 49.4897 31.8867"></polyline>
                <polyline id="Stroke-92" stroke="#FFFFFF" stroke-width="0.216" points="53.7632 37.6758 53.7632 37.6758 53.7452 37.7918 53.7392 37.9148 53.7482 38.0458 53.7772 38.1758 53.8262 38.3068 53.8812 38.4308 53.9552 38.5608 54.0372 38.6758 54.1352 38.7928 54.2372 38.8968 54.3462 38.9988 54.4702 39.0798 54.5912 39.1558 54.7312 39.2178 54.8672 39.2658 55.0042 39.2928 55.1842 39.3208 55.3532 39.3408 55.5322 39.3618 55.7112 39.3758 55.8872 39.3818 56.0732 39.3818 56.2522 39.3758 56.4362 39.3618 56.6202 39.3338 56.8082 39.2988 56.9982 39.2588 57.1832 39.1968 57.3752 39.1218 57.5752 39.0388 57.7652 38.9308 57.9662 38.8138 57.6912 40.4988 57.5812 40.5538 57.4702 40.6098 57.3612 40.6498 57.2592 40.6918 57.1572 40.7258 57.0452 40.7598 56.9362 40.7858 56.8202 40.8078 56.6972 40.8278 56.5592 40.8428 56.4162 40.8558 56.2572 40.8688 56.0792 40.8768 55.8942 40.8768 55.6832 40.8828 55.4572 40.8828 55.1202 40.8768 54.7792 40.8428 54.4362 40.7938 54.0922 40.7108 53.7572 40.6098 53.4352 40.4778 53.1262 40.3078 52.8392 40.1088 52.5712 39.8748 52.3382 39.5948 52.1412 39.2798 51.9752 38.9158 51.8592 38.5118 51.7842 38.0518 51.7642 37.5458 51.7972 36.9848 51.8262 36.7648 51.8662 36.5108 51.9202 36.2438 51.9962 35.9548 52.1002 35.6618 52.2222 35.3668 52.3812 35.0668 52.5712 34.7788 52.7912 34.5038 53.0582 34.2428 53.3592 34.0108 53.7022 33.8058 54.1002 33.6338 54.5452 33.5098 55.0392 33.4288 55.5952 33.4008 55.8612 33.4068 56.1432 33.4348 56.4212 33.4828 56.7032 33.5508 56.9792 33.6548 57.2442 33.7778 57.4922 33.9428 57.7172 34.1338 57.9232 34.3668 58.0942 34.6418 58.2322 34.9558 58.3272 35.3198 58.3822 35.7298 58.3892 36.1958 58.3412 36.7158 58.2392 37.2928 58.2032 37.7098 53.2092 37.7098 53.5252 36.3608 56.5262 36.3608 56.5392 36.1898 56.5332 36.0258 56.5192 35.8738 56.4922 35.7378 56.4432 35.6078 56.3952 35.4888 56.3262 35.3878 56.2572 35.2918 56.1762 35.2098 56.0862 35.1408 55.9852 35.0788 55.8802 35.0248 55.7732 34.9848 55.6612 34.9558 55.5452 34.9358 55.4232 34.9208 55.2912 34.9288 55.1692 34.9488 55.0532 34.9778 54.9372 35.0178 54.8192 35.0718 54.7172 35.1348 54.6132 35.2098 54.5272 35.2918 54.4362 35.3878 54.3542 35.4888 54.2802 35.6008 54.2162 35.7178 54.1552 35.8408 54.1072 35.9768 54.0662 36.1138 54.0372 36.2578 53.7632 37.6758"></polyline>
                <polygon id="Fill-94" fill="#FFFFFF" points="70.106 33.9561 70.016 33.9081 69.928 33.8661 69.833 33.8181 69.729 33.7701 69.627 33.7291 69.51 33.6881 69.394 33.6461 69.27 33.6061 69.14 33.5721 69.009 33.5451 68.865 33.5181 68.722 33.4961 68.565 33.4821 68.407 33.4691 68.243 33.4691 68.072 33.4691 67.9 33.4691 67.72 33.4821 67.538 33.5041 67.343 33.5371 67.153 33.5921 66.96 33.6681 66.77 33.7641 66.577 33.8871 66.391 34.0381 66.213 34.2161 66.043 34.4351 65.878 34.6881 65.727 34.9891 65.584 35.3321 65.456 35.7181 65.344 36.1551 65.303 36.4011 65.275 36.6411 65.261 36.8811 65.268 37.1141 65.29 37.3481 65.337 37.5661 65.399 37.7721 65.474 37.9771 65.577 38.1631 65.7 38.3401 65.845 38.4981 66.008 38.6431 66.194 38.7661 66.406 38.8681 66.638 38.9571 66.901 39.0181 66.989 39.0391 67.091 39.0601 67.214 39.0741 67.352 39.0881 67.502 39.1021 67.659 39.1021 67.832 39.1021 68.002 39.0881 68.181 39.0661 68.359 39.0321 68.53 38.9841 68.701 38.9311 68.872 38.8541 69.031 38.7661 69.173 38.6561 69.311 38.5331 69.002 40.3621 68.961 40.3961 68.919 40.4371 68.865 40.4861 68.803 40.5251 68.729 40.5811 68.632 40.6291 68.523 40.6771 68.399 40.7181 68.243 40.7661 68.064 40.8011 67.858 40.8281 67.619 40.8551 67.352 40.8691 67.043 40.8771 66.695 40.8691 66.308 40.8491 65.995 40.8141 65.679 40.7451 65.364 40.6431 65.049 40.5061 64.749 40.3421 64.46 40.1351 64.186 39.8961 63.932 39.6231 63.707 39.3131 63.514 38.9721 63.35 38.5881 63.227 38.1701 63.146 37.7101 63.118 37.2241 63.131 36.6891 63.206 36.1211 63.262 35.8411 63.324 35.5661 63.391 35.2991 63.46 35.0451 63.536 34.8051 63.624 34.5651 63.713 34.3401 63.808 34.1271 63.913 33.9151 64.015 33.7161 64.131 33.5241 64.254 33.3461 64.378 33.1741 64.514 33.0111 64.651 32.8591 64.795 32.7161 64.953 32.5781 65.112 32.4481 65.275 32.3321 65.448 32.2221 65.631 32.1191 65.817 32.0311 66.008 31.9481 66.208 31.8721 66.419 31.8041 66.631 31.7491 66.851 31.7011 67.085 31.6611 67.317 31.6261 67.564 31.5991 67.81 31.5861 68.072 31.5771 68.291 31.5861 68.503 31.5991 68.708 31.6191 68.915 31.6471 69.106 31.6741 69.292 31.7151 69.467 31.7491 69.633 31.7901 69.791 31.8311 69.928 31.8721 70.058 31.9141 70.168 31.9551 70.263 31.9881 70.345 32.0171 70.408 32.0441 70.45 32.0591"></polygon>
                <polyline id="Stroke-96" stroke="#FFFFFF" stroke-width="0.216" points="70.106 33.9561 70.106 33.9561 70.016 33.9081 69.928 33.8661 69.833 33.8181 69.729 33.7701 69.627 33.7291 69.51 33.6881 69.394 33.6461 69.27 33.6061 69.14 33.5721 69.009 33.5451 68.865 33.5181 68.722 33.4961 68.565 33.4821 68.407 33.4691 68.243 33.4691 68.072 33.4691 67.9 33.4691 67.72 33.4821 67.538 33.5041 67.343 33.5371 67.153 33.5921 66.96 33.6681 66.77 33.7641 66.577 33.8871 66.391 34.0381 66.213 34.2161 66.043 34.4351 65.878 34.6881 65.727 34.9891 65.584 35.3321 65.456 35.7181 65.344 36.1551 65.303 36.4011 65.275 36.6411 65.261 36.8811 65.268 37.1141 65.29 37.3481 65.337 37.5661 65.399 37.7721 65.474 37.9771 65.577 38.1631 65.7 38.3401 65.845 38.4981 66.008 38.6431 66.194 38.7661 66.406 38.8681 66.638 38.9571 66.901 39.0181 66.989 39.0391 67.091 39.0601 67.214 39.0741 67.352 39.0881 67.502 39.1021 67.659 39.1021 67.832 39.1021 68.002 39.0881 68.181 39.0661 68.359 39.0321 68.53 38.9841 68.701 38.9311 68.872 38.8541 69.031 38.7661 69.173 38.6561 69.311 38.5331 69.002 40.3621 68.961 40.3961 68.919 40.4371 68.865 40.4861 68.803 40.5251 68.729 40.5811 68.632 40.6291 68.523 40.6771 68.399 40.7181 68.243 40.7661 68.064 40.8011 67.858 40.8281 67.619 40.8551 67.352 40.8691 67.043 40.8771 66.695 40.8691 66.308 40.8491 65.995 40.8141 65.679 40.7451 65.364 40.6431 65.049 40.5061 64.749 40.3421 64.46 40.1351 64.186 39.8961 63.932 39.6231 63.707 39.3131 63.514 38.9721 63.35 38.5881 63.227 38.1701 63.146 37.7101 63.118 37.2241 63.131 36.6891 63.206 36.1211 63.262 35.8411 63.324 35.5661 63.391 35.2991 63.46 35.0451 63.536 34.8051 63.624 34.5651 63.713 34.3401 63.808 34.1271 63.913 33.9151 64.015 33.7161 64.131 33.5241 64.254 33.3461 64.378 33.1741 64.514 33.0111 64.651 32.8591 64.795 32.7161 64.953 32.5781 65.112 32.4481 65.275 32.3321 65.448 32.2221 65.631 32.1191 65.817 32.0311 66.008 31.9481 66.208 31.8721 66.419 31.8041 66.631 31.7491 66.851 31.7011 67.085 31.6611 67.317 31.6261 67.564 31.5991 67.81 31.5861 68.072 31.5771 68.291 31.5861 68.503 31.5991 68.708 31.6191 68.915 31.6471 69.106 31.6741 69.292 31.7151 69.467 31.7491 69.633 31.7901 69.791 31.8311 69.928 31.8721 70.058 31.9141 70.168 31.9551 70.263 31.9881 70.345 32.0171 70.408 32.0441 70.45 32.0591 70.106 33.9561"></polyline>
                <polygon id="Fill-98" fill="#FFFFFF" points="86.9741 40.8828 85.0771 40.8828 85.2141 40.1228 85.2141 40.0538 85.1041 40.1918 84.9891 40.3138 84.8721 40.4228 84.7491 40.5208 84.6241 40.6098 84.5001 40.6838 84.3771 40.7448 84.2461 40.8078 84.1181 40.8558 83.9881 40.8898 83.8571 40.9238 83.7191 40.9438 83.5821 40.9648 83.4521 40.9788 83.3161 40.9858 83.1781 40.9858 82.8231 40.9578 82.4951 40.8828 82.1931 40.7658 81.9171 40.6098 81.6711 40.4088 81.4531 40.1778 81.2601 39.9228 81.0961 39.6358 80.9581 39.3258 80.8491 39.0058 80.7741 38.6698 80.7191 38.3198 80.7001 37.9708 80.7041 37.6148 80.7401 37.2658 80.8021 36.9158 80.9041 36.5108 81.0301 36.1278 81.1701 35.7788 81.3431 35.4488 81.5211 35.1408 81.7261 34.8658 81.9391 34.6208 82.1641 34.3948 82.4051 34.1958 82.6591 34.0248 82.9191 33.8728 83.1781 33.7568 83.4521 33.6598 83.7271 33.5998 84.0011 33.5588 84.2821 33.5448 84.4811 33.5508 84.6711 33.5718 84.8511 33.6068 85.0171 33.6538 85.1721 33.7098 85.3101 33.7708 85.4481 33.8468 85.5711 33.9218 85.6801 34.0028 85.7831 34.0928 85.8701 34.1818 85.9531 34.2708 86.0221 34.3608 86.0851 34.4488 86.1381 34.5318 86.1811 34.6128 86.6611 31.9208 88.5241 31.9208"></polygon>
                <polyline id="Stroke-100" stroke="#FFFFFF" stroke-width="0.216" points="86.9741 40.8828 85.0771 40.8828 85.2141 40.1228 85.2141 40.0538 85.1041 40.1918 84.9891 40.3138 84.8721 40.4228 84.7491 40.5208 84.6241 40.6098 84.5001 40.6838 84.3771 40.7448 84.2461 40.8078 84.1181 40.8558 83.9881 40.8898 83.8571 40.9238 83.7191 40.9438 83.5821 40.9648 83.4521 40.9788 83.3161 40.9858 83.1781 40.9858 82.8231 40.9578 82.4951 40.8828 82.1931 40.7658 81.9171 40.6098 81.6711 40.4088 81.4531 40.1778 81.2601 39.9228 81.0961 39.6358 80.9581 39.3258 80.8491 39.0058 80.7741 38.6698 80.7191 38.3198 80.7001 37.9708 80.7041 37.6148 80.7401 37.2658 80.8021 36.9158 80.9041 36.5108 81.0301 36.1278 81.1701 35.7788 81.3431 35.4488 81.5211 35.1408 81.7261 34.8658 81.9391 34.6208 82.1641 34.3948 82.4051 34.1958 82.6591 34.0248 82.9191 33.8728 83.1781 33.7568 83.4521 33.6598 83.7271 33.5998 84.0011 33.5588 84.2821 33.5448 84.4811 33.5508 84.6711 33.5718 84.8511 33.6068 85.0171 33.6538 85.1721 33.7098 85.3101 33.7708 85.4481 33.8468 85.5711 33.9218 85.6801 34.0028 85.7831 34.0928 85.8701 34.1818 85.9531 34.2708 86.0221 34.3608 86.0851 34.4488 86.1381 34.5318 86.1811 34.6128 86.6611 31.9208 88.5241 31.9208 86.9741 40.8828"></polyline>
                <polygon id="Fill-102" fill="#7AAE98" points="83.8716 39.2246 84.0626 39.2106 84.2416 39.1696 84.4056 39.1216 84.5636 39.0466 84.7066 38.9646 84.8446 38.8616 84.9736 38.7456 85.0916 38.6206 85.1936 38.4846 85.2886 38.3326 85.3786 38.1756 85.4546 38.0126 85.5206 37.8396 85.5776 37.6626 85.6256 37.4776 85.6586 37.2926 85.6926 37.1016 85.7156 36.9026 85.7156 36.7156 85.7066 36.5256 85.6866 36.3476 85.6586 36.1756 85.6106 36.0106 85.5576 35.8536 85.4876 35.7176 85.4066 35.5866 85.3166 35.4756 85.2146 35.3806 85.0986 35.2986 84.9736 35.2436 84.8446 35.2096 84.6996 35.1956 84.5156 35.2096 84.3436 35.2376 84.1866 35.2916 84.0276 35.3606 83.8916 35.4496 83.7556 35.5596 83.6386 35.6756 83.5216 35.8056 83.4186 35.9546 83.3226 36.1146 83.2326 36.2786 83.1576 36.4556 83.0906 36.6406 83.0356 36.8276 82.9806 37.0246 82.9386 37.2236 82.9036 37.5256 82.9196 37.8546 82.9676 38.1896 83.0556 38.5116 83.1926 38.7926 83.3706 39.0186 83.5966 39.1696"></polygon>
                <polygon id="Fill-104" fill="#FFFFFF" points="41.7944 39.3613 41.5194 40.8823 39.7934 40.8823 39.8404 40.6013 39.8764 40.3483 39.9024 40.1563 39.9304 40.0533 39.8354 40.1633 39.7244 40.2733 39.5954 40.3763 39.4504 40.4713 39.2874 40.5673 39.1144 40.6493 38.9364 40.7313 38.7534 40.8003 38.5544 40.8613 38.3554 40.9113 38.1564 40.9523 37.9504 40.9783 37.7514 40.9923 37.5544 40.9993 37.3614 40.9783 37.1754 40.9523 36.9354 40.8893 36.7164 40.8203 36.5244 40.7313 36.3544 40.6293 36.2034 40.5203 36.0654 40.3963 35.9564 40.2653 35.8594 40.1293 35.7784 39.9853 35.7104 39.8333 35.6554 39.6843 35.6144 39.5333 35.5864 39.3763 35.5654 39.2173 35.5514 39.0663 35.5514 38.9163 35.5724 38.6483 35.6144 38.3953 35.6824 38.1553 35.7724 37.9233 35.8814 37.7033 36.0044 37.5053 36.1484 37.3133 36.3134 37.1413 36.4834 36.9843 36.6764 36.8403 36.8734 36.7103 37.0794 36.5993 37.2984 36.5063 37.5254 36.4283 37.7584 36.3673 37.9984 36.3263 38.0124 36.3263 38.0464 36.3193 38.0934 36.3123 38.1694 36.3053 38.2524 36.2923 38.3474 36.2853 38.4494 36.2713 38.5674 36.2573 38.6844 36.2443 38.8004 36.2303 38.9244 36.2233 39.0334 36.2103 39.1434 36.2033 39.2444 36.1953 39.3404 36.1893 39.4154 36.1893 39.5744 36.1893 39.7404 36.1953 39.8904 36.2033 40.0394 36.2033 40.1634 36.2103 40.2604 36.2153 40.3274 36.2233 40.3484 36.2233 40.3624 36.1753 40.4024 36.0523 40.4384 35.9083 40.4504 35.7783 40.4244 35.6283 40.3624 35.4893 40.2794 35.3673 40.1704 35.2633 40.0394 35.1753 39.8974 35.1133 39.7314 35.0723 39.5534 35.0583 39.3604 35.0513 39.1544 35.0453 38.9424 35.0453 38.7254 35.0513 38.4994 35.0663 38.2784 35.0863 38.0604 35.1063 37.8474 35.1343 37.6424 35.1613 37.4424 35.1953 37.2654 35.2293 37.1014 35.2633 36.9494 35.3063 36.8274 35.3463 36.7314 35.3943 36.6544 35.4353 37.1424 33.7843 37.2934 33.7223 37.4424 33.6683 37.6084 33.6203 37.7734 33.5853 37.9374 33.5503 38.1144 33.5243 38.2924 33.4963 38.4784 33.4823 38.6704 33.4683 38.8674 33.4623 39.0734 33.4543 39.2874 33.4543 39.5054 33.4543 39.7314 33.4543 39.9714 33.4623 40.2104 33.4683 40.4024 33.4823 40.6094 33.5173 40.8224 33.5653 41.0394 33.6273 41.2514 33.7103 41.4594 33.8053 41.6634 33.9223 41.8564 34.0513 42.0264 34.2033 42.1784 34.3673 42.3154 34.5503 42.4184 34.7573 42.4864 34.9773 42.5274 35.2103 42.5274 35.4693 42.4864 35.7443"></polygon>
                <polyline id="Stroke-106" stroke="#FFFFFF" stroke-width="0.216" points="41.7944 39.3613 41.5194 40.8823 39.7934 40.8823 39.8404 40.6013 39.8764 40.3483 39.9024 40.1563 39.9304 40.0533 39.8354 40.1633 39.7244 40.2733 39.5954 40.3763 39.4504 40.4713 39.2874 40.5673 39.1144 40.6493 38.9364 40.7313 38.7534 40.8003 38.5544 40.8613 38.3554 40.9113 38.1564 40.9523 37.9504 40.9783 37.7514 40.9923 37.5544 40.9993 37.3614 40.9783 37.1754 40.9523 36.9354 40.8893 36.7164 40.8203 36.5244 40.7313 36.3544 40.6293 36.2034 40.5203 36.0654 40.3963 35.9564 40.2653 35.8594 40.1293 35.7784 39.9853 35.7104 39.8333 35.6554 39.6843 35.6144 39.5333 35.5864 39.3763 35.5654 39.2173 35.5514 39.0663 35.5514 38.9163 35.5724 38.6483 35.6144 38.3953 35.6824 38.1553 35.7724 37.9233 35.8814 37.7033 36.0044 37.5053 36.1484 37.3133 36.3134 37.1413 36.4834 36.9843 36.6764 36.8403 36.8734 36.7103 37.0794 36.5993 37.2984 36.5063 37.5254 36.4283 37.7584 36.3673 37.9984 36.3263 38.0124 36.3263 38.0464 36.3193 38.0934 36.3123 38.1694 36.3053 38.2524 36.2923 38.3474 36.2853 38.4494 36.2713 38.5674 36.2573 38.6844 36.2443 38.8004 36.2303 38.9244 36.2233 39.0334 36.2103 39.1434 36.2033 39.2444 36.1953 39.3404 36.1893 39.4154 36.1893 39.5744 36.1893 39.7404 36.1953 39.8904 36.2033 40.0394 36.2033 40.1634 36.2103 40.2604 36.2153 40.3274 36.2233 40.3484 36.2233 40.3624 36.1753 40.4024 36.0523 40.4384 35.9083 40.4504 35.7783 40.4244 35.6283 40.3624 35.4893 40.2794 35.3673 40.1704 35.2633 40.0394 35.1753 39.8974 35.1133 39.7314 35.0723 39.5534 35.0583 39.3604 35.0513 39.1544 35.0453 38.9424 35.0453 38.7254 35.0513 38.4994 35.0663 38.2784 35.0863 38.0604 35.1063 37.8474 35.1343 37.6424 35.1613 37.4424 35.1953 37.2654 35.2293 37.1014 35.2633 36.9494 35.3063 36.8274 35.3463 36.7314 35.3943 36.6544 35.4353 37.1424 33.7843 37.2934 33.7223 37.4424 33.6683 37.6084 33.6203 37.7734 33.5853 37.9374 33.5503 38.1144 33.5243 38.2924 33.4963 38.4784 33.4823 38.6704 33.4683 38.8674 33.4623 39.0734 33.4543 39.2874 33.4543 39.5054 33.4543 39.7314 33.4543 39.9714 33.4623 40.2104 33.4683 40.4024 33.4823 40.6094 33.5173 40.8224 33.5653 41.0394 33.6273 41.2514 33.7103 41.4594 33.8053 41.6634 33.9223 41.8564 34.0513 42.0264 34.2033 42.1784 34.3673 42.3154 34.5503 42.4184 34.7573 42.4864 34.9773 42.5274 35.2103 42.5274 35.4693 42.4864 35.7443 41.7944 39.3613"></polyline>
                <polygon id="Fill-108" fill="#467B85" points="40.144 37.5732 40.137 37.5392 40.109 37.5052 40.068 37.4832 39.999 37.4702 39.923 37.4572 39.835 37.4492 39.732 37.4492 39.629 37.4492 39.518 37.4572 39.402 37.4702 39.292 37.4832 39.183 37.4982 39.081 37.5112 38.984 37.5322 38.903 37.5522 38.827 37.5732 38.78 37.5872 38.725 37.6082 38.649 37.6352 38.573 37.6692 38.485 37.7102 38.395 37.7592 38.3 37.8052 38.209 37.8612 38.115 37.9292 38.027 37.9982 37.944 38.0812 37.868 38.1632 37.799 38.2512 37.751 38.3482 37.709 38.4572 37.69 38.5662 37.683 38.8002 37.718 38.9842 37.785 39.1222 37.875 39.2242 37.977 39.2932 38.093 39.3342 38.203 39.3542 38.314 39.3612 38.52 39.3542 38.706 39.3342 38.883 39.3052 39.039 39.2652 39.178 39.2182 39.306 39.1562 39.423 39.0942 39.527 39.0182 39.617 38.9502 39.698 38.8682 39.767 38.7932 39.822 38.7112 39.869 38.6292 39.91 38.5472 39.945 38.4702 39.964 38.3952 40.021 38.1972 40.068 37.9702 40.109 37.7522"></polygon>
                <polygon id="Fill-110" fill="#FFFFFF" points="27.3784 40.8828 25.5154 40.8828 27.0694 31.8868 30.3124 31.8868 30.6184 37.2238 32.8584 31.8868 36.2444 31.8868 34.6534 40.8828 32.7904 40.8828 33.9684 34.1608 33.8944 34.1608 31.1054 40.8828 29.0014 40.8828 28.9894 40.6018 28.9404 39.8548 28.8784 38.7928 28.8104 37.5728 28.7404 36.3478 28.6794 35.2728 28.6314 34.4908 28.6174 34.1608 28.5984 34.1608 28.5584 34.1608 28.5154 34.1608"></polygon>
                <polyline id="Stroke-112" stroke="#FFFFFF" stroke-width="0.216" points="27.3784 40.8828 25.5154 40.8828 27.0694 31.8868 30.3124 31.8868 30.6184 37.2238 32.8584 31.8868 36.2444 31.8868 34.6534 40.8828 32.7904 40.8828 33.9684 34.1608 33.8944 34.1608 31.1054 40.8828 29.0014 40.8828 28.9894 40.6018 28.9404 39.8548 28.8784 38.7928 28.8104 37.5728 28.7404 36.3478 28.6794 35.2728 28.6314 34.4908 28.6174 34.1608 28.5984 34.1608 28.5584 34.1608 28.5154 34.1608 27.3784 40.8828"></polyline>
                <polygon id="Fill-114" fill="#FFFFFF" points="75.8003 39.3613 75.5203 40.8823 73.7993 40.8823 73.8133 40.6013 73.8213 40.3553 73.8213 40.1713 73.8343 40.0893 73.7443 40.1913 73.6413 40.2943 73.5173 40.3893 73.3813 40.4863 73.2373 40.5743 73.0723 40.6563 72.9023 40.7393 72.7313 40.8073 72.5443 40.8613 72.3543 40.9163 72.1613 40.9523 71.9713 40.9783 71.7703 40.9923 71.5793 40.9993 71.3933 40.9783 71.2093 40.9523 70.9623 40.8893 70.7433 40.8203 70.5523 40.7313 70.3733 40.6293 70.2223 40.5203 70.0923 40.3963 69.9833 40.2653 69.8853 40.1293 69.8043 39.9853 69.7423 39.8333 69.6883 39.6843 69.6543 39.5333 69.6263 39.3763 69.6053 39.2173 69.5913 39.0663 69.5913 38.9163 69.6053 38.6483 69.6483 38.3953 69.7093 38.1553 69.7973 37.9233 69.9003 37.7033 70.0313 37.5053 70.1743 37.3133 70.3313 37.1413 70.5113 36.9843 70.6953 36.8403 70.8943 36.7103 71.1063 36.5993 71.3193 36.5063 71.5443 36.4283 71.7703 36.3673 72.0023 36.3263 72.0173 36.3263 72.0523 36.3193 72.1003 36.3123 72.1683 36.3053 72.2563 36.2923 72.3543 36.2853 72.4553 36.2713 72.5653 36.2573 72.6813 36.2443 72.8053 36.2303 72.9213 36.2233 73.0393 36.2103 73.1493 36.2033 73.2433 36.1953 73.3393 36.1893 73.4143 36.1893 73.5783 36.1893 73.7443 36.1953 73.9023 36.2033 74.0533 36.2033 74.1823 36.2103 74.2933 36.2153 74.3553 36.2233 74.3833 36.2233 74.3953 36.1753 74.4163 36.0523 74.4363 35.9083 74.4493 35.7783 74.4213 35.6283 74.3683 35.4893 74.2793 35.3673 74.1753 35.2633 74.0533 35.1753 73.9083 35.1133 73.7573 35.0723 73.5933 35.0583 73.4013 35.0513 73.1963 35.0453 72.9833 35.0453 72.7643 35.0513 72.5363 35.0663 72.3193 35.0863 72.1003 35.1063 71.8863 35.1343 71.6823 35.1613 71.4833 35.1953 71.3063 35.2293 71.1413 35.2633 70.9883 35.3063 70.8653 35.3463 70.7713 35.3943 70.6953 35.4353 71.1763 33.7843 71.3253 33.7223 71.4833 33.6683 71.6403 33.6203 71.8053 33.5853 71.9763 33.5503 72.1473 33.5243 72.3253 33.4963 72.5103 33.4823 72.7023 33.4683 72.9023 33.4623 73.0993 33.4543 73.3113 33.4543 73.5243 33.4543 73.7443 33.4543 73.9773 33.4623 74.2103 33.4683 74.4023 33.4823 74.6093 33.5173 74.8203 33.5653 75.0403 33.6273 75.2523 33.7103 75.4633 33.8053 75.6693 33.9223 75.8623 34.0513 76.0323 34.2033 76.1923 34.3673 76.3273 34.5503 76.4293 34.7573 76.5053 34.9773 76.5533 35.2103 76.5533 35.4693 76.5203 35.7443"></polygon>
                <polygon id="Fill-116" fill="#FFFFFF" points="75.52 40.9307 75.561 40.8897 75.841 39.3687 75.758 39.3547 75.478 40.8767 75.52 40.8337 75.52 40.9307 75.553 40.9237 75.561 40.8897"></polygon>
                <polygon id="Fill-118" fill="#FFFFFF" points="73.7573 40.8828 73.7993 40.9308 75.5203 40.9308 75.5203 40.8338 73.7993 40.8338 73.8403 40.8828 73.7573 40.8828 73.7513 40.9308 73.7993 40.9308"></polygon>
                <polygon id="Fill-120" fill="#FFFFFF" points="73.8677 40.1143 73.8057 40.0603 73.7777 40.1713 73.7707 40.3553 73.7707 40.6013 73.7577 40.8833 73.8407 40.8833 73.8537 40.6013 73.8677 40.3553 73.8587 40.1713 73.8587 40.1143 73.7997 40.0603"></polygon>
                <polygon id="Fill-122" fill="#FFFFFF" points="71.2026 40.9922 71.2026 40.9922 71.3926 41.0192 71.5796 41.0402 71.7696 41.0342 71.9716 41.0192 72.1686 40.9922 72.3606 40.9582 72.5516 40.9042 72.7436 40.8482 72.9146 40.7802 73.0926 40.6982 73.2566 40.6162 73.4006 40.5202 73.5456 40.4232 73.6686 40.3282 73.7776 40.2182 73.8676 40.1142 73.7996 40.0602 73.7096 40.1632 73.6136 40.2592 73.4906 40.3552 73.3606 40.4512 73.2156 40.5332 73.0526 40.6162 72.8886 40.6982 72.7176 40.7652 72.5366 40.8202 72.3466 40.8772 72.1546 40.9112 71.9716 40.9372 71.7696 40.9522 71.5796 40.9582 71.3926 40.9372 71.2146 40.9112"></polygon>
                <polygon id="Fill-124" fill="#FFFFFF" points="69.5435 38.916 69.5435 38.916 69.5505 39.066 69.5645 39.218 69.5845 39.382 69.6115 39.54 69.6475 39.69 69.7025 39.848 69.7645 40.006 69.8525 40.149 69.9485 40.294 70.0585 40.423 70.1955 40.554 70.3535 40.663 70.5305 40.773 70.7305 40.861 70.9535 40.931 71.2025 40.992 71.2145 40.911 70.9705 40.849 70.7585 40.78 70.5715 40.691 70.3935 40.595 70.2485 40.486 70.1255 40.368 70.0165 40.238 69.9205 40.108 69.8475 39.965 69.7835 39.82 69.7295 39.678 69.6945 39.526 69.6665 39.368 69.6475 39.218 69.6335 39.066 69.6405 38.916"></polygon>
                <polygon id="Fill-126" fill="#FFFFFF" points="72.0024 36.2852 72.0024 36.2852 71.7654 36.3262 71.5314 36.3882 71.3064 36.4632 71.0864 36.5592 70.8724 36.6692 70.6664 36.8062 70.4824 36.9502 70.3054 37.1142 70.1394 37.2852 69.9964 37.4772 69.8584 37.6822 69.7574 37.9092 69.6664 38.1412 69.6054 38.3892 69.5644 38.6482 69.5434 38.9162 69.6404 38.9162 69.6484 38.6482 69.6884 38.4022 69.7494 38.1702 69.8384 37.9362 69.9414 37.7232 70.0654 37.5322 70.2094 37.3402 70.3594 37.1702 70.5354 37.0182 70.7234 36.8742 70.9134 36.7512 71.1264 36.6402 71.3314 36.5462 71.5594 36.4712 71.7764 36.4082 72.0024 36.3672"></polygon>
                <polygon id="Fill-128" fill="#FFFFFF" points="73.4146 36.1406 73.4146 36.1406 73.3396 36.1406 73.2436 36.1556 73.1486 36.1626 73.0396 36.1686 72.9216 36.1816 72.8056 36.1896 72.6816 36.2026 72.5646 36.2156 72.4556 36.2306 72.3536 36.2446 72.2566 36.2506 72.1686 36.2656 72.1006 36.2716 72.0456 36.2786 72.0176 36.2856 72.0026 36.2856 72.0026 36.3676 72.0176 36.3676 72.0596 36.3606 72.1006 36.3546 72.1686 36.3476 72.2566 36.3336 72.3536 36.3266 72.4556 36.3126 72.5646 36.2976 72.6816 36.2856 72.8056 36.2716 72.9216 36.2656 73.0396 36.2506 73.1486 36.2446 73.2436 36.2376 73.3396 36.2376 73.4146 36.2376"></polygon>
                <polygon id="Fill-130" fill="#FFFFFF" points="74.3403 36.2158 74.3833 36.1818 74.3553 36.1818 74.2933 36.1758 74.1823 36.1688 74.0533 36.1548 73.9023 36.1548 73.7443 36.1548 73.5783 36.1408 73.4143 36.1408 73.4143 36.2368 73.5783 36.2368 73.7443 36.2368 73.9023 36.2508 74.0533 36.2508 74.1823 36.2508 74.2933 36.2578 74.3553 36.2658 74.3833 36.2658 74.4213 36.2308 74.3833 36.2658 74.4163 36.2718 74.4213 36.2308"></polygon>
                <polygon id="Fill-132" fill="#FFFFFF" points="74.4097 35.7783 74.4017 35.7783 74.3947 35.9083 74.3747 36.0453 74.3547 36.1693 74.3407 36.2153 74.4217 36.2303 74.4357 36.1813 74.4567 36.0573 74.4777 35.9083 74.4997 35.7783 74.4907 35.7783"></polygon>
                <polygon id="Fill-134" fill="#FFFFFF" points="73.5933 35.0996 73.5933 35.1066 73.7513 35.1136 73.8953 35.1556 74.0313 35.2156 74.1483 35.2986 74.2433 35.3946 74.3263 35.5106 74.3833 35.6336 74.4093 35.7786 74.4903 35.7786 74.4643 35.6206 74.4093 35.4696 74.3123 35.3396 74.2023 35.2296 74.0723 35.1346 73.9213 35.0726 73.7643 35.0326 73.5933 35.0116 73.5933 35.0176"></polygon>
                <polygon id="Fill-136" fill="#FFFFFF" points="70.6538 35.4287 70.7228 35.4697 70.7918 35.4357 70.8798 35.3877 70.9968 35.3467 71.1478 35.3067 71.3118 35.2727 71.4898 35.2377 71.6888 35.2017 71.8858 35.1757 72.0998 35.1477 72.3188 35.1257 72.5368 35.1067 72.7638 35.0937 72.9828 35.0937 73.1968 35.0937 73.4008 35.0937 73.5928 35.0997 73.5928 35.0177 73.4008 35.0117 73.1968 34.9967 72.9828 34.9967 72.7638 35.0117 72.5368 35.0247 72.3188 35.0447 72.0998 35.0667 71.8858 35.0937 71.6748 35.1197 71.4758 35.1557 71.2978 35.1897 71.1328 35.2237 70.9838 35.2637 70.8528 35.3067 70.7498 35.3527 70.6668 35.4017 70.7368 35.4427"></polygon>
                <polygon id="Fill-138" fill="#FFFFFF" points="71.1616 33.7432 71.1336 33.7772 70.6536 35.4292 70.7366 35.4422 71.2146 33.7902 71.1876 33.8262 71.1616 33.7432 71.1406 33.7502 71.1336 33.7772"></polygon>
                <polygon id="Fill-140" fill="#FFFFFF" points="74.2104 33.4287 74.2104 33.4287 73.9774 33.4147 73.7444 33.4077 73.5234 33.4077 73.3114 33.4077 73.0994 33.4077 72.9014 33.4217 72.7024 33.4287 72.5104 33.4427 72.3254 33.4537 72.1404 33.4827 71.9714 33.5097 71.7984 33.5447 71.6324 33.5787 71.4684 33.6267 71.3124 33.6817 71.1614 33.7427 71.1884 33.8257 71.3404 33.7637 71.4964 33.7097 71.6474 33.6597 71.8124 33.6267 71.9834 33.5917 72.1544 33.5657 72.3254 33.5367 72.5104 33.5247 72.7024 33.5097 72.9014 33.5037 73.0994 33.5037 73.3114 33.5037 73.5234 33.5037 73.7444 33.5037 73.9774 33.5097 74.2104 33.5097"></polygon>
                <polygon id="Fill-142" fill="#FFFFFF" points="76.5601 35.751 76.5601 35.751 76.5951 35.47 76.5951 35.21 76.5471 34.969 76.4721 34.743 76.3631 34.532 76.2251 34.34 76.0591 34.169 75.8881 34.018 75.6911 33.887 75.4851 33.764 75.2661 33.668 75.0531 33.585 74.8281 33.524 74.6141 33.477 74.4021 33.442 74.2101 33.429 74.2101 33.51 74.4021 33.524 74.6001 33.559 74.8131 33.606 75.0271 33.668 75.2381 33.75 75.4431 33.847 75.6491 33.956 75.8331 34.086 76.0041 34.236 76.1551 34.395 76.2921 34.571 76.3891 34.772 76.4651 34.984 76.5121 35.21 76.5121 35.47 76.4771 35.737"></polygon>
                <polygon id="Fill-144" fill="#FFFFFF" points="75.8413 39.3682 75.8413 39.3682 76.5603 35.7512 76.4773 35.7372 75.7583 39.3542"></polygon>
                <polygon id="Fill-146" fill="#7AAE98" points="74.1411 37.5732 74.1271 37.5322 74.1011 37.4982 74.0531 37.4772 73.9831 37.4572 73.9091 37.4492 73.8211 37.4422 73.7161 37.4422 73.6141 37.4492 73.5031 37.4642 73.3961 37.4772 73.2871 37.4912 73.1821 37.5052 73.0791 37.5252 72.9901 37.5392 72.9021 37.5592 72.8331 37.5732 72.7861 37.5802 72.7311 37.6002 72.6621 37.6212 72.5861 37.6482 72.4961 37.6882 72.4131 37.7312 72.3191 37.7792 72.2301 37.8402 72.1401 37.9022 72.0521 37.9772 71.9761 38.0522 71.9011 38.1412 71.8401 38.2372 71.7911 38.3402 71.7501 38.4502 71.7301 38.5662 71.7221 38.8002 71.7561 38.9842 71.8121 39.1222 71.8941 39.2242 71.9951 39.2932 72.1141 39.3342 72.2301 39.3542 72.3461 39.3612 72.5511 39.3542 72.7441 39.3342 72.9211 39.2992 73.0791 39.2522 73.2301 39.1972 73.3611 39.1352 73.4841 39.0662 73.5931 38.9842 73.6901 38.9092 73.7711 38.8202 73.8471 38.7382 73.9091 38.6482 73.9561 38.5662 73.9901 38.4842 74.0181 38.4022 74.0391 38.3272 74.0661 38.1352 74.1011 37.9362 74.1271 37.7452"></polygon>
                <polygon id="Fill-148" fill="#FFFFFF" points="88.2554 39.9453 88.2704 39.7863 88.3244 39.6013 88.4214 39.4363 88.5374 39.2933 88.6814 39.1773 88.8444 39.0943 89.0234 39.0393 89.2154 39.0183 89.4084 39.0393 89.5854 39.0943 89.7504 39.1773 89.8944 39.2933 90.0104 39.4363 90.1054 39.6013 90.1614 39.7863 90.1754 39.9453 89.9694 39.9453 89.9624 39.8203 89.9214 39.6703 89.8534 39.5333 89.7634 39.4163 89.6534 39.3203 89.5254 39.2523 89.3734 39.2043 89.2154 39.1903 89.0584 39.2043 88.9074 39.2523 88.7764 39.3203 88.6664 39.4163 88.5784 39.5333 88.5094 39.6703 88.4694 39.8203 88.4544 39.9453"></polygon>
                <polygon id="Fill-150" fill="#FFFFFF" points="88.8726 39.9453 88.8726 39.5333 89.2506 39.5333 89.3336 39.5403 89.4086 39.5523 89.4616 39.5743 89.5116 39.6013 89.5446 39.6423 89.5706 39.6843 89.5856 39.7313 89.5926 39.7793 89.5856 39.8413 89.5706 39.8883 89.5516 39.9303 89.5376 39.9453 89.2506 39.9453 89.2766 39.9373 89.3236 39.9303 89.3666 39.9173 89.4016 39.9033 89.4286 39.8833 89.4416 39.8613 89.4566 39.8283 89.4566 39.7793 89.4476 39.7453 89.4346 39.7173 89.4126 39.7043 89.3936 39.6903 89.3596 39.6843 89.3236 39.6773 89.2906 39.6773 89.2506 39.6773 89.0436 39.6773 89.0436 39.9453"></polygon>
                <polygon id="Fill-152" fill="#FFFFFF" points="88.2554 39.9453 88.2504 39.9853 88.2704 40.1833 88.3244 40.3683 88.4214 40.5333 88.5374 40.6713 88.6814 40.7863 88.8444 40.8773 89.0234 40.9303 89.2154 40.9523 89.4084 40.9303 89.5854 40.8773 89.7504 40.7863 89.8944 40.6713 90.0104 40.5333 90.1054 40.3683 90.1614 40.1833 90.1834 39.9853 90.1754 39.9453 89.9694 39.9453 89.9764 39.9853 89.9624 40.1493 89.9214 40.3003 89.8534 40.4303 89.7634 40.5463 89.6534 40.6433 89.5254 40.7173 89.3734 40.7653 89.2154 40.7803 89.0584 40.7653 88.9074 40.7173 88.7764 40.6433 88.6664 40.5463 88.5784 40.4303 88.5094 40.3003 88.4694 40.1493 88.4544 39.9853 88.4544 39.9453"></polygon>
                <polygon id="Fill-154" fill="#FFFFFF" points="88.8726 39.9453 88.8726 40.3623 89.0436 40.3623 89.0436 40.0193 89.2156 40.0193 89.4216 40.3623 89.5576 40.3623 89.3516 40.0193 89.4016 40.0193 89.4476 40.0063 89.4896 39.9923 89.5246 39.9653 89.5376 39.9453 89.2506 39.9453 89.2156 39.9513 89.0436 39.9513 89.0436 39.9453"></polygon>
                <path d="M89.2153,40.7803 L89.2153,40.7803 L89.3733,40.7653 L89.5253,40.7183 L89.6533,40.6433 L89.7633,40.5463 L89.8533,40.4303 L89.9213,40.3013 L89.9623,40.1493 L89.9763,39.9853 L89.9623,39.8203 L89.9213,39.6703 L89.8533,39.5333 L89.7633,39.4163 L89.6533,39.3203 L89.5253,39.2523 L89.3733,39.2043 L89.2153,39.1903 L89.0583,39.2043 L88.9073,39.2523 L88.7763,39.3203 L88.6663,39.4163 L88.5783,39.5333 L88.5093,39.6703 L88.4693,39.8203 L88.4543,39.9853 L88.4693,40.1493 L88.5093,40.3013 L88.5783,40.4303 L88.6663,40.5463 L88.7763,40.6433 L88.9073,40.7183 L89.0583,40.7653 L89.2153,40.7803 M89.2153,39.9513 L89.2153,39.9513 L89.2773,39.9373 L89.3233,39.9303 L89.3663,39.9173 L89.4023,39.9033 L89.4283,39.8833 L89.4423,39.8613 L89.4563,39.8283 L89.4563,39.7793 L89.4473,39.7453 L89.4353,39.7183 L89.4123,39.7043 L89.3933,39.6903 L89.3603,39.6843 L89.3233,39.6773 L89.2903,39.6773 L89.2503,39.6773 L89.0433,39.6773 L89.0433,39.9513 L89.2153,39.9513 M89.0433,40.3623 L88.8723,40.3623 L88.8723,39.5333 L89.2503,39.5333 L89.3333,39.5403 L89.4083,39.5523 L89.4613,39.5743 L89.5113,39.6013 L89.5443,39.6423 L89.5703,39.6843 L89.5853,39.7313 L89.5923,39.7793 L89.5853,39.8413 L89.5703,39.8883 L89.5513,39.9303 L89.5253,39.9653 L89.4893,39.9923 L89.4473,40.0063 L89.4023,40.0193 L89.3523,40.0193 L89.5573,40.3623 L89.4213,40.3623 L89.2153,40.0193 L89.0433,40.0193 L89.0433,40.3623 M88.2503,39.9853 L88.2503,39.9853 L88.2703,39.7863 L88.3243,39.6013 L88.4213,39.4363 L88.5373,39.2933 L88.6813,39.1773 L88.8443,39.0943 L89.0233,39.0393 L89.2153,39.0183 L89.4083,39.0393 L89.5853,39.0943 L89.7503,39.1773 L89.8943,39.2933 L90.0103,39.4363 L90.1053,39.6013 L90.1613,39.7863 L90.1833,39.9853 L90.1613,40.1833 L90.1053,40.3683 L90.0103,40.5333 L89.8943,40.6713 L89.7503,40.7863 L89.5853,40.8773 L89.4083,40.9303 L89.2153,40.9523 L89.0233,40.9303 L88.8443,40.8773 L88.6813,40.7863 L88.5373,40.6713 L88.4213,40.5333 L88.3243,40.3683 L88.2703,40.1833 L88.2503,39.9853" id="Stroke-156" stroke="#FFFFFF" stroke-width="0.216"></path>
                <polygon id="Fill-158" fill="#FFFFFF" points="76.313 40.8828 78.246 40.8828 78.938 36.9848 78.965 36.8338 79.005 36.6828 79.047 36.5318 79.102 36.3808 79.171 36.2308 79.252 36.0858 79.342 35.9488 79.454 35.8198 79.575 35.7028 79.712 35.5928 79.87 35.4888 80.047 35.4068 80.247 35.3398 80.465 35.2848 80.705 35.2428 80.973 35.2298 81.07 35.2298 81.123 35.2298 81.144 35.2298 81.453 33.4688 81.26 33.4828 81.075 33.5038 80.904 33.5368 80.74 33.5848 80.588 33.6398 80.446 33.7098 80.308 33.7838 80.179 33.8658 80.054 33.9628 79.938 34.0588 79.829 34.1688 79.719 34.2778 79.616 34.3948 79.515 34.5238 79.411 34.6478 79.314 34.7848 79.52 33.5448 77.595 33.5448"></polygon>
                <polyline id="Stroke-160" stroke="#FFFFFF" stroke-width="0.216" points="76.313 40.8828 78.246 40.8828 78.938 36.9848 78.965 36.8338 79.005 36.6828 79.047 36.5318 79.102 36.3808 79.171 36.2308 79.252 36.0858 79.342 35.9488 79.454 35.8198 79.575 35.7028 79.712 35.5928 79.87 35.4888 80.047 35.4068 80.247 35.3398 80.465 35.2848 80.705 35.2428 80.973 35.2298 81.07 35.2298 81.123 35.2298 81.144 35.2298 81.453 33.4688 81.26 33.4828 81.075 33.5038 80.904 33.5368 80.74 33.5848 80.588 33.6398 80.446 33.7098 80.308 33.7838 80.179 33.8658 80.054 33.9628 79.938 34.0588 79.829 34.1688 79.719 34.2778 79.616 34.3948 79.515 34.5238 79.411 34.6478 79.314 34.7848 79.52 33.5448 77.595 33.5448 76.313 40.8828"></polyline>
                <polygon id="Fill-162" fill="#FFFFFF" points="58.1704 40.8828 60.1034 40.8828 60.1364 40.8828 60.7934 36.9848 60.8214 36.8338 60.8564 36.6898 60.8914 36.5458 60.9384 36.4078 60.9924 36.2718 61.0624 36.1408 61.1434 36.0178 61.2394 35.9018 61.3494 35.7978 61.4724 35.6958 61.6224 35.6128 61.7884 35.5378 61.9804 35.4758 62.1914 35.4228 62.4244 35.3878 62.6924 35.3668 62.7124 35.3668 62.7394 35.3738 62.7744 35.3808 62.8094 35.3808 62.8444 35.3878 62.8704 35.3948 62.8904 35.4018 62.8974 35.4018 62.9054 35.3738 62.9254 35.2918 62.9514 35.1688 62.9864 35.0178 63.0344 34.8398 63.0824 34.6478 63.1464 34.4548 63.2054 34.2628 63.2624 34.1338 63.3304 34.0028 63.3984 33.8728 63.4664 33.7568 63.5274 33.6538 63.5754 33.5718 63.6084 33.5248 63.6234 33.5038 63.6164 33.5038 63.5904 33.4958 63.5544 33.4888 63.5074 33.4828 63.4594 33.4828 63.4044 33.4768 63.3574 33.4688 63.3104 33.4688 63.0964 33.4828 62.9054 33.5038 62.7264 33.5368 62.5624 33.5788 62.4034 33.6338 62.2604 33.7028 62.1304 33.7708 62.0064 33.8528 61.8904 33.9428 61.7804 34.0448 61.6794 34.1478 61.5744 34.2628 61.4724 34.3808 61.3754 34.5118 61.2734 34.6478 61.1714 34.7848 61.4174 33.5448 59.4524 33.5448"></polygon>
                <polyline id="Stroke-164" stroke="#FFFFFF" stroke-width="0.216" points="58.1704 40.8828 60.1034 40.8828 60.1364 40.8828 60.7934 36.9848 60.8214 36.8338 60.8564 36.6898 60.8914 36.5458 60.9384 36.4078 60.9924 36.2718 61.0624 36.1408 61.1434 36.0178 61.2394 35.9018 61.3494 35.7978 61.4724 35.6958 61.6224 35.6128 61.7884 35.5378 61.9804 35.4758 62.1914 35.4228 62.4244 35.3878 62.6924 35.3668 62.7124 35.3668 62.7394 35.3738 62.7744 35.3808 62.8094 35.3808 62.8444 35.3878 62.8704 35.3948 62.8904 35.4018 62.8974 35.4018 62.9054 35.3738 62.9254 35.2918 62.9514 35.1688 62.9864 35.0178 63.0344 34.8398 63.0824 34.6478 63.1464 34.4548 63.2054 34.2628 63.2624 34.1338 63.3304 34.0028 63.3984 33.8728 63.4664 33.7568 63.5274 33.6538 63.5754 33.5718 63.6084 33.5248 63.6234 33.5038 63.6164 33.5038 63.5904 33.4958 63.5544 33.4888 63.5074 33.4828 63.4594 33.4828 63.4044 33.4768 63.3574 33.4688 63.3104 33.4688 63.0964 33.4828 62.9054 33.5038 62.7264 33.5368 62.5624 33.5788 62.4034 33.6338 62.2604 33.7028 62.1304 33.7708 62.0064 33.8528 61.8904 33.9428 61.7804 34.0448 61.6794 34.1478 61.5744 34.2628 61.4724 34.3808 61.3754 34.5118 61.2734 34.6478 61.1714 34.7848 61.4174 33.5448 59.4524 33.5448 58.1704 40.8828"></polyline>
                <polygon id="Fill-166" fill="#7AAE98" points="88.27 48.0908 88.27 48.0638 88.325 47.8858 88.421 47.7278 88.538 47.5908 88.681 47.4818 88.844 47.3988 89.023 47.3518 89.215 47.3298 89.409 47.3518 89.585 47.3988 89.75 47.4818 89.894 47.5908 90.01 47.7278 90.105 47.8858 90.162 48.0638 90.162 48.0908 89.962 48.0908 89.921 47.9478 89.853 47.8178 89.763 47.6998 89.654 47.6048 89.525 47.5288 89.374 47.4818 89.215 47.4668 89.058 47.4818 88.908 47.5288 88.776 47.6048 88.666 47.6998 88.579 47.8178 88.509 47.9478 88.469 48.0908"></polygon>
                <polygon id="Fill-168" fill="#7AAE98" points="88.8726 48.0908 88.8726 47.8518 89.2506 47.8518 89.3336 47.8518 89.4086 47.8648 89.4616 47.8778 89.5116 47.9048 89.5446 47.9408 89.5706 47.9818 89.5856 48.0288 89.5926 48.0908 89.4566 48.0908 89.4566 48.0568 89.4476 48.0228 89.4346 47.9948 89.4126 47.9818 89.3936 47.9678 89.3596 47.9608 89.3236 47.9538 89.2906 47.9538 89.2506 47.9538 89.0436 47.9538 89.0436 48.0908"></polygon>
                <polygon id="Fill-170" fill="#7AAE98" points="88.2505 48.2412 88.2705 48.0912 88.4695 48.0912 88.4695 48.0962 88.4545 48.2412"></polygon>
                <polygon id="Fill-172" fill="#7AAE98" points="88.8726 48.2412 88.8726 48.0912 89.0436 48.0912 89.0436 48.2272 89.2156 48.2272 89.2766 48.2152 89.3236 48.2082 89.3666 48.1932 89.4016 48.1792 89.4286 48.1602 89.4416 48.1382 89.4566 48.1052 89.4566 48.0912 89.5926 48.0912 89.5856 48.1382 89.5706 48.1792 89.5516 48.2152 89.5246 48.2412"></polygon>
                <polygon id="Fill-174" fill="#7AAE98" points="89.9761 48.2412 89.9621 48.0962 89.9621 48.0912 90.1621 48.0912 90.1831 48.2412"></polygon>
                <polygon id="Fill-176" fill="#7AAE98" points="88.2505 48.2412 88.2505 48.2622 88.2705 48.4602 88.3245 48.6452 88.4215 48.8102 88.5375 48.9542 88.6815 49.0712 88.8445 49.1522 89.0225 49.2082 89.2155 49.2282 89.4085 49.2082 89.5855 49.1522 89.7505 49.0712 89.8945 48.9542 90.0105 48.8102 90.1045 48.6452 90.1615 48.4602 90.1835 48.2622 90.1835 48.2412 89.9765 48.2412 89.9765 48.2622 89.9625 48.4272 89.9215 48.5772 89.8535 48.7072 89.7635 48.8222 89.6535 48.9202 89.5245 48.9952 89.3735 49.0432 89.2155 49.0562 89.0585 49.0432 88.9075 48.9952 88.7755 48.9202 88.6665 48.8222 88.5785 48.7072 88.5095 48.5772 88.4695 48.4272 88.4545 48.2622 88.4545 48.2412"></polygon>
                <polygon id="Fill-178" fill="#7AAE98" points="88.8726 48.2412 88.8726 48.6392 89.0436 48.6392 89.0436 48.2962 89.2156 48.2962 89.4216 48.6392 89.5576 48.6392 89.3516 48.2962 89.4016 48.2962 89.4476 48.2832 89.4896 48.2682 89.5246 48.2412"></polygon>
                <path d="M56.5259,36.3604 L54.0219,36.3604 L54.0239,36.3544 L54.0199,36.3534 L54.0379,36.2574 L54.0659,36.1144 L54.1069,35.9764 L54.1549,35.8404 L54.2159,35.7174 L54.2799,35.6004 L54.3539,35.4894 L54.4359,35.3874 L54.5269,35.2924 L54.6129,35.2104 L54.7169,35.1344 L54.8189,35.0724 L54.9369,35.0174 L55.0529,34.9774 L55.1699,34.9494 L55.2919,34.9284 L55.4229,34.9214 L55.5459,34.9354 L55.6619,34.9564 L55.7729,34.9844 L55.8799,35.0244 L55.9849,35.0794 L56.0869,35.1404 L56.1759,35.2104 L56.2569,35.2924 L56.3269,35.3874 L56.3949,35.4894 L56.4429,35.6074 L56.4919,35.7374 L56.5189,35.8744 L56.5329,36.0254 L56.5399,36.1894 L56.5259,36.3604 Z M58.3819,35.7294 L58.3279,35.3194 L58.2319,34.9564 L58.0939,34.6414 L57.9229,34.3674 L57.7169,34.1334 L57.4919,33.9424 L57.2449,33.7774 L56.9789,33.6544 L56.7039,33.5504 L56.4219,33.4824 L56.1429,33.4344 L55.8609,33.4074 L55.5949,33.4004 L55.0399,33.4284 L54.5459,33.5094 L54.0999,33.6334 L53.7029,33.8054 L53.3589,34.0104 L53.0579,34.2434 L52.7919,34.5044 L52.5709,34.7784 L52.3809,35.0664 L52.2219,35.3674 L52.0999,35.6624 L51.9969,35.9554 L51.9209,36.2444 L51.8659,36.5104 L51.8259,36.7644 L51.7969,36.9844 L51.7639,37.5464 L51.7839,38.0514 L51.8589,38.5114 L51.9749,38.9164 L52.1409,39.2794 L52.3389,39.5944 L52.5709,39.8754 L52.8389,40.1084 L53.1269,40.3074 L53.4349,40.4774 L53.7569,40.6094 L54.0919,40.7114 L54.4359,40.7944 L54.7789,40.8424 L55.1209,40.8774 L55.4579,40.8824 L55.6829,40.8824 L55.8939,40.8774 L56.0799,40.8774 L56.2569,40.8694 L56.4169,40.8554 L56.5589,40.8424 L56.6969,40.8284 L56.8199,40.8074 L56.9359,40.7864 L57.0459,40.7594 L57.1569,40.7254 L57.2589,40.6914 L57.3609,40.6494 L57.4699,40.6094 L57.5819,40.5534 L57.6909,40.4994 L57.9659,38.8134 L57.7649,38.9304 L57.5749,39.0394 L57.3759,39.1224 L57.1829,39.1974 L56.9989,39.2584 L56.8079,39.2984 L56.6209,39.3344 L56.4359,39.3614 L56.2529,39.3764 L56.0729,39.3814 L55.8869,39.3814 L55.7119,39.3764 L55.5319,39.3614 L55.3529,39.3404 L55.1839,39.3204 L55.0049,39.2934 L54.8669,39.2654 L54.7309,39.2174 L54.5909,39.1564 L54.4699,39.0804 L54.3459,38.9994 L54.2369,38.8964 L54.1349,38.7934 L54.0379,38.6754 L53.9559,38.5604 L53.8809,38.4304 L53.8269,38.3064 L53.7769,38.1754 L53.7489,38.0464 L53.7389,37.9154 L53.7439,37.7994 L53.7589,37.7104 L58.2039,37.7104 L58.2389,37.2934 L58.3409,36.7154 L58.3889,36.1954 L58.3819,35.7294 Z" id="Fill-180" fill="#FFFFFF"></path>
            </g>
        </g>
    </g>
</svg>