<?xml version="1.0" encoding="UTF-8"?>
<svg width="112px" height="70px" viewBox="0 0 112 70" version="1.1" xmlns="http://www.w3.org/2000/svg" xmlns:xlink="http://www.w3.org/1999/xlink">
    <!-- Generator: Sketch 46.2 (44496) - http://www.bohemiancoding.com/sketch -->
    <title>Group 11</title>
    <desc>Created with Sketch.</desc>
    <defs></defs>
    <g id="Welcome" stroke="none" stroke-width="1" fill="none" fill-rule="evenodd">
        <g id="Desktop-Copy-6" transform="translate(-1495.000000, -4982.000000)">
            <g id="Group-11" transform="translate(1495.000000, 4982.000000)">
                <path d="M111.7614,66.2891 C111.7614,68.3391 110.0984,70.0001 108.0484,70.0001 L4.1114,70.0001 C2.0624,70.0001 0.4004,68.3391 0.4004,66.2891 L0.4004,4.1111 C0.4004,2.0611 2.0624,0.4001 4.1114,0.4001 L108.0484,0.4001 C110.0984,0.4001 111.7614,2.0611 111.7614,4.1111 L111.7614,66.2891 Z" id="Fill-182" fill="#F9F5F1"></path>
                <path d="M34.9508,33.5801 L34.9508,32.4671 L34.4188,33.5801 L29.8078,33.5801 L29.2288,32.3851 L29.2288,33.5801 L20.6108,33.5801 L19.5928,31.1701 L17.8658,31.1701 L16.7868,33.5801 L12.3188,33.5801 L12.3188,26.3041 L15.5948,18.8921 L21.8658,18.8921 L22.7468,20.9921 L22.7468,18.9081 L30.4168,18.9081 L32.1038,22.4431 L33.7548,18.8921 L57.9698,18.8921 C57.9698,18.8921 59.2378,18.8751 60.0738,19.4631 L60.0688,18.8921 L66.1698,18.8921 L66.1698,19.6951 C66.1698,19.6951 67.2668,18.8921 68.8888,18.8921 L79.6528,18.8921 L80.5978,21.0231 L80.5978,18.8921 L87.4968,18.8921 L88.7488,21.0231 L88.7488,18.8921 L95.3438,18.8921 L95.3438,33.5941 L88.5678,33.5941 L86.9758,31.0311 L86.9758,33.5801 L78.5548,33.5801 L77.3718,30.9541 L75.7208,30.9541 L74.6108,33.5801 L69.5138,33.5801 C69.5138,33.5801 67.6138,33.5561 66.1878,32.5361 L66.1878,33.5801 L56.0428,33.5801 L56.0428,30.1491 C56.0428,29.6521 55.6608,29.6861 55.6608,29.6861 L55.2898,29.6861 L55.2898,33.5801 L34.9508,33.5801 Z" id="Fill-184" fill="#FFFFFF"></path>
                <path d="M29.8883,36.7637 L43.2193,36.7637 L45.1443,38.9417 L47.1123,36.7637 L57.3623,36.7637 C57.3623,36.7637 58.3253,36.7877 59.2383,37.2757 L59.2383,36.7637 L68.3663,36.7637 C69.5253,36.7637 70.4973,37.3427 70.4973,37.3427 L70.4973,36.7637 L82.2303,36.7637 L82.2303,37.2977 C82.2303,37.2977 83.0663,36.7637 84.1893,36.7637 L91.8333,36.7637 L91.8333,37.2977 C91.8333,37.2977 92.7953,36.7637 93.8133,36.7637 L99.8153,36.7637 L99.8153,50.6177 C99.8153,50.6177 99.0263,51.5097 97.3943,51.5097 L89.4823,51.5097 L89.4823,51.0697 C89.4823,51.0697 88.7293,51.5097 87.5813,51.5097 L66.5633,51.5097 L66.5633,47.9287 C66.5633,47.5767 66.4103,47.5127 66.0963,47.5127 L65.8073,47.5127 L65.8073,51.5097 L59.2383,51.5097 L59.2383,47.5367 C59.2383,47.5367 58.5103,47.9287 57.2923,47.9287 L54.9313,47.9287 L54.9313,51.5097 L46.8343,51.5097 L44.9923,49.2627 L43.0233,51.5097 L29.8883,51.5097 L29.8883,36.7637 Z" id="Fill-186" fill="#FFFFFF"></path>
                <polygon id="Fill-188" fill="#7AAE98" points="71.9059 38.9746 80.2719 38.9746 80.2719 41.2186 74.4669 41.2186 74.4669 43.1736 80.1089 43.1736 80.1089 45.1516 74.4669 45.1516 74.4669 47.2086 80.2719 47.2086 80.2719 49.3976 71.9059 49.3976"></polygon>
                <path d="M96.4352,43.0352 C99.5792,43.1972 99.8422,44.7672 99.8422,46.4432 C99.8422,48.3952 98.2372,49.4442 96.5622,49.4442 L91.1862,49.4442 L91.1862,47.2092 L95.3732,47.2092 C96.0842,47.2092 97.1432,47.2092 97.1432,46.2092 C97.1432,45.7332 96.9572,45.4312 96.2012,45.3502 C95.8652,45.3022 94.6222,45.2322 94.4322,45.2292 C91.5922,45.1542 90.9292,43.7412 90.9292,42.0212 C90.9292,40.0662 92.3032,38.9992 93.9802,38.9992 L99.3542,38.9992 L99.3542,41.2322 L95.4202,41.2322 C94.5262,41.2412 93.5602,41.1262 93.5602,42.1382 C93.5602,42.7772 94.0372,42.9052 94.6422,42.9652 C94.8522,42.9652 96.2482,43.0372 96.4352,43.0352" id="Fill-190" fill="#7AAE98"></path>
                <path d="M86.7994,43.0352 C89.9454,43.1972 90.2084,44.7672 90.2084,46.4432 C90.2084,48.3952 88.6044,49.4442 86.9274,49.4442 L81.5534,49.4442 L81.5534,47.2092 L85.7414,47.2092 C86.4504,47.2092 87.5104,47.2092 87.5104,46.2092 C87.5104,45.7332 87.3224,45.4312 86.5674,45.3502 C86.2304,45.3022 84.9854,45.2322 84.7994,45.2292 C81.9554,45.1542 81.2984,43.7412 81.2984,42.0212 C81.2984,40.0662 82.6704,38.9992 84.3454,38.9992 L89.7194,38.9992 L89.7194,41.2322 L85.7884,41.2322 C84.8924,41.2412 83.9264,41.1262 83.9264,42.1382 C83.9264,42.7772 84.4044,42.9052 85.0094,42.9652 C85.2174,42.9652 86.6134,43.0372 86.7994,43.0352" id="Fill-192" fill="#7AAE98"></path>
                <path d="M55.5953,43.7363 L52.4073,43.7363 L52.4073,41.2343 L55.6053,41.2343 C56.6773,41.2343 57.0153,41.9213 57.0153,42.4313 C57.0153,43.1313 56.6423,43.7363 55.5953,43.7363 L55.5953,43.7363 Z M49.8253,48.4203 L46.1503,44.0693 L49.8253,39.9973 L49.8253,48.4203 Z M40.0443,47.2093 L34.1433,47.2093 L34.1433,45.1513 L39.7873,45.1513 L39.7873,43.1743 L34.1433,43.1743 L34.1433,41.2183 L40.3663,41.2323 L42.8583,44.0693 L40.0443,47.2093 Z M56.4563,38.9973 L47.4763,38.9973 L44.5433,42.2303 L41.7063,38.9743 L31.6193,38.9743 L31.6193,49.3973 L41.3793,49.3973 L44.4513,45.9543 L47.4513,49.4223 L52.3633,49.4223 L52.3633,45.8823 L55.8053,45.8823 C57.1313,45.8823 59.5523,45.8383 59.5523,42.1843 C59.5523,39.5783 57.7143,38.9973 56.4563,38.9973 L56.4563,38.9973 Z" id="Fill-194" fill="#7AAE98"></path>
                <path d="M66.61,43.5957 L63.422,43.5957 L63.422,41.2347 L66.62,41.2347 C67.69,41.2347 68.028,41.9207 68.028,42.4317 C68.028,43.1287 67.657,43.5957 66.61,43.5957 M68.819,44.6737 C70.216,43.9777 70.588,43.0457 70.588,41.7887 C70.588,39.5567 68.774,38.9987 67.516,38.9987 L60.863,38.9987 L60.863,49.4217 L63.422,49.4217 L63.422,45.7437 L66.773,45.7437 C67.657,45.7437 68.006,46.6287 68.028,47.5127 L68.095,49.4217 L70.588,49.4217 L70.494,47.2807 C70.494,45.6037 70.031,44.8127 68.819,44.6737" id="Fill-196" fill="#7AAE98"></path>
                <polygon id="Fill-198" fill="#7AAE98" points="61.888 31.416 64.448 31.416 64.448 20.98 61.888 20.98"></polygon>
                <polygon id="Fill-200" fill="#7AAE98" points="40.9391 20.9922 49.3021 20.9922 49.3021 23.2362 43.4991 23.2362 43.4991 25.1922 49.1391 25.1922 49.1391 27.1692 43.4991 27.1692 43.4991 29.2272 49.3021 29.2272 49.3021 31.4162 40.9391 31.4162"></polygon>
                <path d="M56.568,25.5889 L53.38,25.5889 L53.38,23.2279 L56.58,23.2279 C57.648,23.2279 57.988,23.9139 57.988,24.4259 C57.988,25.1249 57.615,25.5889 56.568,25.5889 M58.779,26.6679 C60.176,25.9729 60.547,25.0399 60.547,23.7819 C60.547,21.5489 58.732,20.9919 57.476,20.9919 L50.821,20.9919 L50.821,31.4159 L53.38,31.4159 L53.38,27.7389 L56.731,27.7389 C57.615,27.7389 57.965,28.6219 57.988,29.5069 L58.057,31.4159 L60.547,31.4159 L60.456,29.2749 C60.456,27.5989 59.989,26.8089 58.779,26.6679" id="Fill-201" fill="#7AAE98"></path>
                <path d="M17.0055,26.8398 L18.5315,23.1958 L20.1215,26.8398 L17.0055,26.8398 Z M35.0355,20.9918 L31.8965,27.9848 L28.7665,20.9918 L24.7535,20.9918 L24.7535,31.0308 L20.2865,20.9918 L16.9005,20.9918 L12.3395,31.4158 L15.0395,31.4158 L16.0375,29.0888 L21.1465,29.0888 L22.1585,31.4158 L27.3115,31.4158 L27.3115,23.6788 L30.7325,31.4158 L33.0595,31.4158 L36.5605,23.8068 L36.5605,31.4158 L39.1195,31.4158 L39.1195,20.9918 L35.0355,20.9918 Z" id="Fill-202" fill="#7AAE98"></path>
                <path d="M75.1364,26.8447 L76.6594,23.2007 L78.2664,26.8447 L75.1364,26.8447 Z M90.8554,20.9877 L90.8554,28.2037 L86.5384,20.9877 L82.7574,20.9877 L82.7574,30.7757 L78.3984,20.9917 L75.0114,20.9917 L71.4864,29.0667 C71.4864,29.0667 69.9964,29.0667 69.8454,29.0297 C69.2304,28.9037 68.2654,28.4677 68.2534,26.6297 L68.2534,25.8737 C68.2534,23.4307 69.5794,23.2517 71.2814,23.2517 L72.8614,23.2517 L72.8614,20.9877 L69.5194,20.9877 C68.3564,20.9877 65.8234,21.8747 65.7394,26.1567 C65.6804,29.0417 66.9374,31.4207 69.7764,31.4207 L73.1514,31.4207 L74.1494,29.0937 L79.2564,29.0937 L80.2694,31.4207 L85.3184,31.4207 L85.3184,23.7877 L89.9244,31.4207 L93.4144,31.4207 L93.4144,20.9877 L90.8554,20.9877 Z" id="Fill-203" fill="#7AAE98"></path>
            </g>
        </g>
    </g>
</svg>