<?xml version="1.0" encoding="UTF-8"?>
<svg width="30px" height="30px" viewBox="0 0 30 30" version="1.1" xmlns="http://www.w3.org/2000/svg" xmlns:xlink="http://www.w3.org/1999/xlink">
    <!-- Generator: Sketch 46.2 (44496) - http://www.bohemiancoding.com/sketch -->
    <title>Page 1</title>
    <desc>Created with Sketch.</desc>
    <defs>
        <path d="M0.169,14.977 C0.169,23.083 6.801,29.714 14.906,29.714 C23.011,29.714 29.643,23.083 29.643,14.977 C29.643,6.872 23.011,0.241 14.906,0.241 C6.801,0.241 0.169,6.872 0.169,14.977 Z" id="path-1"></path>
        <path d="M0.633,5.756 C0.633,6.232 0.684,6.692 0.803,7.109 C1.067,8.07 1.637,8.843 2.539,9.201 C2.751,9.295 2.948,9.201 2.997,8.98 C3.049,8.819 3.143,8.427 3.193,8.257 C3.262,8.028 3.236,7.95 3.067,7.756 C2.845,7.491 2.658,7.194 2.555,6.819 C2.487,6.573 2.445,6.301 2.445,5.985 C2.445,3.714 4.206,1.673 7.031,1.673 C9.522,1.673 10.9,3.144 10.9,5.118 C10.9,5.705 10.841,6.258 10.731,6.786 C10.339,8.597 9.319,9.907 7.949,9.907 C6.979,9.907 6.238,9.133 6.478,8.172 C6.613,7.636 6.809,7.074 6.979,6.53 C7.157,5.959 7.311,5.408 7.311,4.982 C7.311,4.233 6.903,3.629 6.043,3.629 C5.048,3.629 4.248,4.633 4.248,5.959 C4.248,6.207 4.274,6.445 4.309,6.624 C4.401,7.099 4.546,7.39 4.546,7.39 C4.546,7.39 3.525,11.566 3.355,12.297 C2.997,13.761 3.304,15.539 3.33,15.717 C3.338,15.82 3.482,15.845 3.551,15.769 C3.644,15.65 4.827,14.245 5.236,12.825 C5.337,12.417 5.89,10.341 5.89,10.341 C6.205,10.945 7.15,11.473 8.161,11.473 C10.585,11.473 12.39,9.712 12.977,7.15 C13.112,6.573 13.18,5.943 13.18,5.297 C13.18,2.617 10.841,0.142 7.277,0.142 C2.87,0.142 0.633,3.196 0.633,5.756 Z" id="path-3"></path>
    </defs>
    <g id="Welcome" stroke="none" stroke-width="1" fill="none" fill-rule="evenodd">
        <g id="Desktop-Copy-6" transform="translate(-1621.000000, -30.000000)">
            <g id="Page-1" transform="translate(1621.000000, 30.000000)">
                <g id="Group-3">
                    <mask id="mask-2" fill="white">
                        <use xlink:href="#path-1"></use>
                    </mask>
                    <g id="Clip-2"></g>
                    <polygon id="Fill-1" fill="#F9F9F9" mask="url(#mask-2)" points="-2.933 32.816 32.746 32.816 32.746 -2.863 -2.933 -2.863"></polygon>
                </g>
                <g id="Group-6" transform="translate(8.000000, 7.000000)">
                    <mask id="mask-4" fill="white">
                        <use xlink:href="#path-3"></use>
                    </mask>
                    <g id="Clip-5"></g>
                    <polygon id="Fill-4" fill="#91BFAC" mask="url(#mask-4)" points="-2.469 18.915 16.283 18.915 16.283 -2.961 -2.469 -2.961"></polygon>
                </g>
            </g>
        </g>
    </g>
</svg>