<?xml version="1.0" encoding="UTF-8"?>
<svg width="95px" height="96px" viewBox="0 0 95 96" version="1.1" xmlns="http://www.w3.org/2000/svg" xmlns:xlink="http://www.w3.org/1999/xlink">
    <!-- Generator: Sketch 46.2 (44496) - http://www.bohemiancoding.com/sketch -->
    <title>Group 4</title>
    <desc>Created with Sketch.</desc>
    <defs>
        <path d="M0,47.723 L0,48.304 C0.158,74.199 21.314,95.355 47.209,95.513 L47.79,95.513 C73.687,95.355 94.844,74.2 94.999,48.302 L94.999,47.724 C94.843,21.731 73.529,0.514 47.5,0.514 C21.471,0.514 0.159,21.732 0,47.723 Z" id="path-1"></path>
        <path d="M26.278,0.999 L26.335,0.999 C26.335,0.999 36.946,0.999 44.02,1.52 C44.981,1.659 47.148,1.687 49.065,3.769 C50.573,5.361 51.094,9.005 51.094,9.005 C51.094,9.005 51.588,13.284 51.588,17.505 L51.588,18.274 L51.588,21.536 C51.588,25.812 51.094,30.036 51.094,30.036 C51.094,30.036 50.573,33.682 49.065,35.299 C47.148,37.411 44.981,37.411 44.02,37.55 C36.946,38.044 26.335,38.097 26.335,38.097 C26.335,38.097 13.176,37.96 9.145,37.55 C7.993,37.331 5.471,37.411 3.552,35.299 C2.042,33.682 1.522,30.036 1.522,30.036 C1.522,30.036 0.999,25.812 0.999,21.536 L0.999,18.053 L0.999,17.505 C0.999,13.284 1.522,9.005 1.522,9.005 C1.522,9.005 2.042,5.361 3.552,3.769 C5.471,1.687 7.608,1.659 8.62,1.52 C15.697,0.999 26.278,0.999 26.278,0.999 Z M21.07,15.01 L21.07,26.362 L34.753,18.988 L27.267,14.929 L21.07,11.557 L21.07,15.01 Z" id="path-3"></path>
    </defs>
    <g id="Welcome" stroke="none" stroke-width="1" fill="none" fill-rule="evenodd">
        <g id="Desktop-Copy-6" transform="translate(-1518.000000, -4755.000000)">
            <g id="Group-4" transform="translate(1518.000000, 4755.000000)">
                <g id="Group-18">
                    <mask id="mask-2" fill="white">
                        <use xlink:href="#path-1"></use>
                    </mask>
                    <g id="Clip-17"></g>
                    <polygon id="Fill-16" fill="#F9F9F9" mask="url(#mask-2)" points="-5 100.514 100 100.514 100 -4.486 -5 -4.486"></polygon>
                </g>
                <g id="Group-21" transform="translate(21.000000, 28.000000)">
                    <mask id="mask-4" fill="white">
                        <use xlink:href="#path-3"></use>
                    </mask>
                    <g id="Clip-20"></g>
                    <polygon id="Fill-19" fill="#91BFAC" mask="url(#mask-4)" points="-4 43.097 56.588 43.097 56.588 -4 -4 -4"></polygon>
                </g>
            </g>
        </g>
    </g>
</svg>